<?xml version="1.0" encoding="utf-8"?>
<svg xmlns="http://www.w3.org/2000/svg" xmlns:xlink="http://www.w3.org/1999/xlink" width="600" height="400" viewBox="0 0 2400 1600">
<defs>
  <clipPath id="clip180">
    <rect x="0" y="0" width="2400" height="1600"/>
  </clipPath>
</defs>
<path clip-path="url(#clip180)" d="
M0 1600 L2400 1600 L2400 0 L0 0  Z
  " fill="#282c34" fill-rule="evenodd" fill-opacity="1"/>
<defs>
  <clipPath id="clip181">
    <rect x="480" y="0" width="1681" height="1600"/>
  </clipPath>
</defs>
<path clip-path="url(#clip180)" d="
M216.436 1486.45 L2352.76 1486.45 L2352.76 123.472 L216.436 123.472  Z
  " fill="#21252b" fill-rule="evenodd" fill-opacity="1"/>
<defs>
  <clipPath id="clip182">
    <rect x="216" y="123" width="2137" height="1364"/>
  </clipPath>
</defs>
<polyline clip-path="url(#clip182)" style="stroke:#adb2b7; stroke-linecap:butt; stroke-linejoin:round; stroke-width:2; stroke-opacity:0.1; fill:none" points="
  249.663,1486.45 249.663,123.472 
  "/>
<polyline clip-path="url(#clip182)" style="stroke:#adb2b7; stroke-linecap:butt; stroke-linejoin:round; stroke-width:2; stroke-opacity:0.1; fill:none" points="
  794.364,1486.45 794.364,123.472 
  "/>
<polyline clip-path="url(#clip182)" style="stroke:#adb2b7; stroke-linecap:butt; stroke-linejoin:round; stroke-width:2; stroke-opacity:0.1; fill:none" points="
  1339.07,1486.45 1339.07,123.472 
  "/>
<polyline clip-path="url(#clip182)" style="stroke:#adb2b7; stroke-linecap:butt; stroke-linejoin:round; stroke-width:2; stroke-opacity:0.1; fill:none" points="
  1883.77,1486.45 1883.77,123.472 
  "/>
<polyline clip-path="url(#clip180)" style="stroke:#adb2b7; stroke-linecap:butt; stroke-linejoin:round; stroke-width:4; stroke-opacity:1; fill:none" points="
  216.436,1486.45 2352.76,1486.45 
  "/>
<polyline clip-path="url(#clip180)" style="stroke:#adb2b7; stroke-linecap:butt; stroke-linejoin:round; stroke-width:4; stroke-opacity:1; fill:none" points="
  249.663,1486.45 249.663,1467.55 
  "/>
<polyline clip-path="url(#clip180)" style="stroke:#adb2b7; stroke-linecap:butt; stroke-linejoin:round; stroke-width:4; stroke-opacity:1; fill:none" points="
  794.364,1486.45 794.364,1467.55 
  "/>
<polyline clip-path="url(#clip180)" style="stroke:#adb2b7; stroke-linecap:butt; stroke-linejoin:round; stroke-width:4; stroke-opacity:1; fill:none" points="
  1339.07,1486.45 1339.07,1467.55 
  "/>
<polyline clip-path="url(#clip180)" style="stroke:#adb2b7; stroke-linecap:butt; stroke-linejoin:round; stroke-width:4; stroke-opacity:1; fill:none" points="
  1883.77,1486.45 1883.77,1467.55 
  "/>
<path clip-path="url(#clip180)" d="M249.663 1517.37 Q246.052 1517.37 244.223 1520.93 Q242.417 1524.47 242.417 1531.6 Q242.417 1538.71 244.223 1542.27 Q246.052 1545.82 249.663 1545.82 Q253.297 1545.82 255.102 1542.27 Q256.931 1538.71 256.931 1531.6 Q256.931 1524.47 255.102 1520.93 Q253.297 1517.37 249.663 1517.37 M249.663 1513.66 Q255.473 1513.66 258.528 1518.27 Q261.607 1522.85 261.607 1531.6 Q261.607 1540.33 258.528 1544.94 Q255.473 1549.52 249.663 1549.52 Q243.853 1549.52 240.774 1544.94 Q237.718 1540.33 237.718 1531.6 Q237.718 1522.85 240.774 1518.27 Q243.853 1513.66 249.663 1513.66 Z" fill="#9eb1be" fill-rule="evenodd" fill-opacity="1" /><path clip-path="url(#clip180)" d="M773.138 1544.91 L789.457 1544.91 L789.457 1548.85 L767.513 1548.85 L767.513 1544.91 Q770.175 1542.16 774.758 1537.53 Q779.364 1532.88 780.545 1531.53 Q782.79 1529.01 783.67 1527.27 Q784.573 1525.51 784.573 1523.82 Q784.573 1521.07 782.628 1519.33 Q780.707 1517.6 777.605 1517.6 Q775.406 1517.6 772.952 1518.36 Q770.522 1519.13 767.744 1520.68 L767.744 1515.95 Q770.568 1514.82 773.022 1514.24 Q775.476 1513.66 777.513 1513.66 Q782.883 1513.66 786.077 1516.35 Q789.272 1519.03 789.272 1523.52 Q789.272 1525.65 788.462 1527.57 Q787.675 1529.47 785.568 1532.07 Q784.989 1532.74 781.888 1535.95 Q778.786 1539.15 773.138 1544.91 Z" fill="#9eb1be" fill-rule="evenodd" fill-opacity="1" /><path clip-path="url(#clip180)" d="M809.272 1517.37 Q805.661 1517.37 803.832 1520.93 Q802.026 1524.47 802.026 1531.6 Q802.026 1538.71 803.832 1542.27 Q805.661 1545.82 809.272 1545.82 Q812.906 1545.82 814.711 1542.27 Q816.54 1538.71 816.54 1531.6 Q816.54 1524.47 814.711 1520.93 Q812.906 1517.37 809.272 1517.37 M809.272 1513.66 Q815.082 1513.66 818.137 1518.27 Q821.216 1522.85 821.216 1531.6 Q821.216 1540.33 818.137 1544.94 Q815.082 1549.52 809.272 1549.52 Q803.462 1549.52 800.383 1544.94 Q797.327 1540.33 797.327 1531.6 Q797.327 1522.85 800.383 1518.27 Q803.462 1513.66 809.272 1513.66 Z" fill="#9eb1be" fill-rule="evenodd" fill-opacity="1" /><path clip-path="url(#clip180)" d="M1327.24 1518.36 L1315.43 1536.81 L1327.24 1536.81 L1327.24 1518.36 M1326.01 1514.29 L1331.89 1514.29 L1331.89 1536.81 L1336.82 1536.81 L1336.82 1540.7 L1331.89 1540.7 L1331.89 1548.85 L1327.24 1548.85 L1327.24 1540.7 L1311.64 1540.7 L1311.64 1536.19 L1326.01 1514.29 Z" fill="#9eb1be" fill-rule="evenodd" fill-opacity="1" /><path clip-path="url(#clip180)" d="M1354.55 1517.37 Q1350.94 1517.37 1349.11 1520.93 Q1347.31 1524.47 1347.31 1531.6 Q1347.31 1538.71 1349.11 1542.27 Q1350.94 1545.82 1354.55 1545.82 Q1358.19 1545.82 1359.99 1542.27 Q1361.82 1538.71 1361.82 1531.6 Q1361.82 1524.47 1359.99 1520.93 Q1358.19 1517.37 1354.55 1517.37 M1354.55 1513.66 Q1360.36 1513.66 1363.42 1518.27 Q1366.5 1522.85 1366.5 1531.6 Q1366.5 1540.33 1363.42 1544.94 Q1360.36 1549.52 1354.55 1549.52 Q1348.74 1549.52 1345.66 1544.94 Q1342.61 1540.33 1342.61 1531.6 Q1342.61 1522.85 1345.66 1518.27 Q1348.74 1513.66 1354.55 1513.66 Z" fill="#9eb1be" fill-rule="evenodd" fill-opacity="1" /><path clip-path="url(#clip180)" d="M1869.17 1529.7 Q1866.02 1529.7 1864.17 1531.86 Q1862.34 1534.01 1862.34 1537.76 Q1862.34 1541.49 1864.17 1543.66 Q1866.02 1545.82 1869.17 1545.82 Q1872.32 1545.82 1874.15 1543.66 Q1876 1541.49 1876 1537.76 Q1876 1534.01 1874.15 1531.86 Q1872.32 1529.7 1869.17 1529.7 M1878.46 1515.05 L1878.46 1519.31 Q1876.7 1518.48 1874.89 1518.04 Q1873.11 1517.6 1871.35 1517.6 Q1866.72 1517.6 1864.27 1520.72 Q1861.83 1523.85 1861.49 1530.17 Q1862.85 1528.15 1864.91 1527.09 Q1866.97 1526 1869.45 1526 Q1874.66 1526 1877.67 1529.17 Q1880.7 1532.32 1880.7 1537.76 Q1880.7 1543.08 1877.55 1546.3 Q1874.4 1549.52 1869.17 1549.52 Q1863.18 1549.52 1860.01 1544.94 Q1856.84 1540.33 1856.84 1531.6 Q1856.84 1523.41 1860.72 1518.55 Q1864.61 1513.66 1871.16 1513.66 Q1872.92 1513.66 1874.71 1514.01 Q1876.51 1514.36 1878.46 1515.05 Z" fill="#9eb1be" fill-rule="evenodd" fill-opacity="1" /><path clip-path="url(#clip180)" d="M1898.76 1517.37 Q1895.15 1517.37 1893.32 1520.93 Q1891.51 1524.47 1891.51 1531.6 Q1891.51 1538.71 1893.32 1542.27 Q1895.15 1545.82 1898.76 1545.82 Q1902.39 1545.82 1904.2 1542.27 Q1906.02 1538.71 1906.02 1531.6 Q1906.02 1524.47 1904.2 1520.93 Q1902.39 1517.37 1898.76 1517.37 M1898.76 1513.66 Q1904.57 1513.66 1907.62 1518.27 Q1910.7 1522.85 1910.7 1531.6 Q1910.7 1540.33 1907.62 1544.94 Q1904.57 1549.52 1898.76 1549.52 Q1892.95 1549.52 1889.87 1544.94 Q1886.81 1540.33 1886.81 1531.6 Q1886.81 1522.85 1889.87 1518.27 Q1892.95 1513.66 1898.76 1513.66 Z" fill="#9eb1be" fill-rule="evenodd" fill-opacity="1" /><polyline clip-path="url(#clip182)" style="stroke:#adb2b7; stroke-linecap:butt; stroke-linejoin:round; stroke-width:2; stroke-opacity:0.1; fill:none" points="
  216.436,1270.03 2352.76,1270.03 
  "/>
<polyline clip-path="url(#clip182)" style="stroke:#adb2b7; stroke-linecap:butt; stroke-linejoin:round; stroke-width:2; stroke-opacity:0.1; fill:none" points="
  216.436,962.657 2352.76,962.657 
  "/>
<polyline clip-path="url(#clip182)" style="stroke:#adb2b7; stroke-linecap:butt; stroke-linejoin:round; stroke-width:2; stroke-opacity:0.1; fill:none" points="
  216.436,655.28 2352.76,655.28 
  "/>
<polyline clip-path="url(#clip182)" style="stroke:#adb2b7; stroke-linecap:butt; stroke-linejoin:round; stroke-width:2; stroke-opacity:0.1; fill:none" points="
  216.436,347.903 2352.76,347.903 
  "/>
<polyline clip-path="url(#clip180)" style="stroke:#adb2b7; stroke-linecap:butt; stroke-linejoin:round; stroke-width:4; stroke-opacity:1; fill:none" points="
  216.436,1486.45 216.436,123.472 
  "/>
<polyline clip-path="url(#clip180)" style="stroke:#adb2b7; stroke-linecap:butt; stroke-linejoin:round; stroke-width:4; stroke-opacity:1; fill:none" points="
  216.436,1270.03 235.334,1270.03 
  "/>
<polyline clip-path="url(#clip180)" style="stroke:#adb2b7; stroke-linecap:butt; stroke-linejoin:round; stroke-width:4; stroke-opacity:1; fill:none" points="
  216.436,962.657 235.334,962.657 
  "/>
<polyline clip-path="url(#clip180)" style="stroke:#adb2b7; stroke-linecap:butt; stroke-linejoin:round; stroke-width:4; stroke-opacity:1; fill:none" points="
  216.436,655.28 235.334,655.28 
  "/>
<polyline clip-path="url(#clip180)" style="stroke:#adb2b7; stroke-linecap:butt; stroke-linejoin:round; stroke-width:4; stroke-opacity:1; fill:none" points="
  216.436,347.903 235.334,347.903 
  "/>
<path clip-path="url(#clip180)" d="M63.9319 1255.83 Q60.3208 1255.83 58.4921 1259.4 Q56.6865 1262.94 56.6865 1270.07 Q56.6865 1277.18 58.4921 1280.74 Q60.3208 1284.28 63.9319 1284.28 Q67.5661 1284.28 69.3717 1280.74 Q71.2004 1277.18 71.2004 1270.07 Q71.2004 1262.94 69.3717 1259.4 Q67.5661 1255.83 63.9319 1255.83 M63.9319 1252.13 Q69.742 1252.13 72.7976 1256.74 Q75.8763 1261.32 75.8763 1270.07 Q75.8763 1278.8 72.7976 1283.4 Q69.742 1287.99 63.9319 1287.99 Q58.1217 1287.99 55.043 1283.4 Q51.9875 1278.8 51.9875 1270.07 Q51.9875 1261.32 55.043 1256.74 Q58.1217 1252.13 63.9319 1252.13 Z" fill="#9eb1be" fill-rule="evenodd" fill-opacity="1" /><path clip-path="url(#clip180)" d="M84.0938 1281.43 L88.978 1281.43 L88.978 1287.31 L84.0938 1287.31 L84.0938 1281.43 Z" fill="#9eb1be" fill-rule="evenodd" fill-opacity="1" /><path clip-path="url(#clip180)" d="M109.163 1255.83 Q105.552 1255.83 103.723 1259.4 Q101.918 1262.94 101.918 1270.07 Q101.918 1277.18 103.723 1280.74 Q105.552 1284.28 109.163 1284.28 Q112.797 1284.28 114.603 1280.74 Q116.432 1277.18 116.432 1270.07 Q116.432 1262.94 114.603 1259.4 Q112.797 1255.83 109.163 1255.83 M109.163 1252.13 Q114.973 1252.13 118.029 1256.74 Q121.107 1261.32 121.107 1270.07 Q121.107 1278.8 118.029 1283.4 Q114.973 1287.99 109.163 1287.99 Q103.353 1287.99 100.274 1283.4 Q97.2187 1278.8 97.2187 1270.07 Q97.2187 1261.32 100.274 1256.74 Q103.353 1252.13 109.163 1252.13 Z" fill="#9eb1be" fill-rule="evenodd" fill-opacity="1" /><path clip-path="url(#clip180)" d="M139.325 1255.83 Q135.714 1255.83 133.885 1259.4 Q132.08 1262.94 132.08 1270.07 Q132.08 1277.18 133.885 1280.74 Q135.714 1284.28 139.325 1284.28 Q142.959 1284.28 144.765 1280.74 Q146.593 1277.18 146.593 1270.07 Q146.593 1262.94 144.765 1259.4 Q142.959 1255.83 139.325 1255.83 M139.325 1252.13 Q145.135 1252.13 148.191 1256.74 Q151.269 1261.32 151.269 1270.07 Q151.269 1278.8 148.191 1283.4 Q145.135 1287.99 139.325 1287.99 Q133.515 1287.99 130.436 1283.4 Q127.381 1278.8 127.381 1270.07 Q127.381 1261.32 130.436 1256.74 Q133.515 1252.13 139.325 1252.13 Z" fill="#9eb1be" fill-rule="evenodd" fill-opacity="1" /><path clip-path="url(#clip180)" d="M159.533 1252.75 L177.89 1252.75 L177.89 1256.69 L163.816 1256.69 L163.816 1265.16 Q164.834 1264.81 165.853 1264.65 Q166.871 1264.47 167.89 1264.47 Q173.677 1264.47 177.056 1267.64 Q180.436 1270.81 180.436 1276.23 Q180.436 1281.8 176.964 1284.91 Q173.491 1287.99 167.172 1287.99 Q164.996 1287.99 162.728 1287.62 Q160.482 1287.24 158.075 1286.5 L158.075 1281.8 Q160.158 1282.94 162.38 1283.49 Q164.603 1284.05 167.079 1284.05 Q171.084 1284.05 173.422 1281.94 Q175.76 1279.84 175.76 1276.23 Q175.76 1272.62 173.422 1270.51 Q171.084 1268.4 167.079 1268.4 Q165.204 1268.4 163.329 1268.82 Q161.478 1269.24 159.533 1270.12 L159.533 1252.75 Z" fill="#9eb1be" fill-rule="evenodd" fill-opacity="1" /><path clip-path="url(#clip180)" d="M62.9365 948.456 Q59.3254 948.456 57.4967 952.02 Q55.6912 955.562 55.6912 962.692 Q55.6912 969.798 57.4967 973.363 Q59.3254 976.905 62.9365 976.905 Q66.5707 976.905 68.3763 973.363 Q70.205 969.798 70.205 962.692 Q70.205 955.562 68.3763 952.02 Q66.5707 948.456 62.9365 948.456 M62.9365 944.752 Q68.7467 944.752 71.8022 949.358 Q74.8809 953.942 74.8809 962.692 Q74.8809 971.419 71.8022 976.025 Q68.7467 980.608 62.9365 980.608 Q57.1264 980.608 54.0477 976.025 Q50.9921 971.419 50.9921 962.692 Q50.9921 953.942 54.0477 949.358 Q57.1264 944.752 62.9365 944.752 Z" fill="#9eb1be" fill-rule="evenodd" fill-opacity="1" /><path clip-path="url(#clip180)" d="M83.0984 974.057 L87.9827 974.057 L87.9827 979.937 L83.0984 979.937 L83.0984 974.057 Z" fill="#9eb1be" fill-rule="evenodd" fill-opacity="1" /><path clip-path="url(#clip180)" d="M108.168 948.456 Q104.557 948.456 102.728 952.02 Q100.922 955.562 100.922 962.692 Q100.922 969.798 102.728 973.363 Q104.557 976.905 108.168 976.905 Q111.802 976.905 113.608 973.363 Q115.436 969.798 115.436 962.692 Q115.436 955.562 113.608 952.02 Q111.802 948.456 108.168 948.456 M108.168 944.752 Q113.978 944.752 117.033 949.358 Q120.112 953.942 120.112 962.692 Q120.112 971.419 117.033 976.025 Q113.978 980.608 108.168 980.608 Q102.358 980.608 99.2789 976.025 Q96.2234 971.419 96.2234 962.692 Q96.2234 953.942 99.2789 949.358 Q102.358 944.752 108.168 944.752 Z" fill="#9eb1be" fill-rule="evenodd" fill-opacity="1" /><path clip-path="url(#clip180)" d="M129.14 976.002 L136.779 976.002 L136.779 949.636 L128.469 951.303 L128.469 947.044 L136.732 945.377 L141.408 945.377 L141.408 976.002 L149.047 976.002 L149.047 979.937 L129.14 979.937 L129.14 976.002 Z" fill="#9eb1be" fill-rule="evenodd" fill-opacity="1" /><path clip-path="url(#clip180)" d="M168.491 948.456 Q164.88 948.456 163.052 952.02 Q161.246 955.562 161.246 962.692 Q161.246 969.798 163.052 973.363 Q164.88 976.905 168.491 976.905 Q172.126 976.905 173.931 973.363 Q175.76 969.798 175.76 962.692 Q175.76 955.562 173.931 952.02 Q172.126 948.456 168.491 948.456 M168.491 944.752 Q174.302 944.752 177.357 949.358 Q180.436 953.942 180.436 962.692 Q180.436 971.419 177.357 976.025 Q174.302 980.608 168.491 980.608 Q162.681 980.608 159.603 976.025 Q156.547 971.419 156.547 962.692 Q156.547 953.942 159.603 949.358 Q162.681 944.752 168.491 944.752 Z" fill="#9eb1be" fill-rule="evenodd" fill-opacity="1" /><path clip-path="url(#clip180)" d="M63.9319 641.078 Q60.3208 641.078 58.4921 644.643 Q56.6865 648.185 56.6865 655.315 Q56.6865 662.421 58.4921 665.986 Q60.3208 669.527 63.9319 669.527 Q67.5661 669.527 69.3717 665.986 Q71.2004 662.421 71.2004 655.315 Q71.2004 648.185 69.3717 644.643 Q67.5661 641.078 63.9319 641.078 M63.9319 637.375 Q69.742 637.375 72.7976 641.981 Q75.8763 646.565 75.8763 655.315 Q75.8763 664.041 72.7976 668.648 Q69.742 673.231 63.9319 673.231 Q58.1217 673.231 55.043 668.648 Q51.9875 664.041 51.9875 655.315 Q51.9875 646.565 55.043 641.981 Q58.1217 637.375 63.9319 637.375 Z" fill="#9eb1be" fill-rule="evenodd" fill-opacity="1" /><path clip-path="url(#clip180)" d="M84.0938 666.68 L88.978 666.68 L88.978 672.56 L84.0938 672.56 L84.0938 666.68 Z" fill="#9eb1be" fill-rule="evenodd" fill-opacity="1" /><path clip-path="url(#clip180)" d="M109.163 641.078 Q105.552 641.078 103.723 644.643 Q101.918 648.185 101.918 655.315 Q101.918 662.421 103.723 665.986 Q105.552 669.527 109.163 669.527 Q112.797 669.527 114.603 665.986 Q116.432 662.421 116.432 655.315 Q116.432 648.185 114.603 644.643 Q112.797 641.078 109.163 641.078 M109.163 637.375 Q114.973 637.375 118.029 641.981 Q121.107 646.565 121.107 655.315 Q121.107 664.041 118.029 668.648 Q114.973 673.231 109.163 673.231 Q103.353 673.231 100.274 668.648 Q97.2187 664.041 97.2187 655.315 Q97.2187 646.565 100.274 641.981 Q103.353 637.375 109.163 637.375 Z" fill="#9eb1be" fill-rule="evenodd" fill-opacity="1" /><path clip-path="url(#clip180)" d="M130.135 668.625 L137.774 668.625 L137.774 642.259 L129.464 643.926 L129.464 639.666 L137.728 638 L142.404 638 L142.404 668.625 L150.043 668.625 L150.043 672.56 L130.135 672.56 L130.135 668.625 Z" fill="#9eb1be" fill-rule="evenodd" fill-opacity="1" /><path clip-path="url(#clip180)" d="M159.533 638 L177.89 638 L177.89 641.935 L163.816 641.935 L163.816 650.407 Q164.834 650.06 165.853 649.898 Q166.871 649.713 167.89 649.713 Q173.677 649.713 177.056 652.884 Q180.436 656.055 180.436 661.472 Q180.436 667.051 176.964 670.152 Q173.491 673.231 167.172 673.231 Q164.996 673.231 162.728 672.861 Q160.482 672.49 158.075 671.75 L158.075 667.051 Q160.158 668.185 162.38 668.74 Q164.603 669.296 167.079 669.296 Q171.084 669.296 173.422 667.189 Q175.76 665.083 175.76 661.472 Q175.76 657.861 173.422 655.754 Q171.084 653.648 167.079 653.648 Q165.204 653.648 163.329 654.065 Q161.478 654.481 159.533 655.361 L159.533 638 Z" fill="#9eb1be" fill-rule="evenodd" fill-opacity="1" /><path clip-path="url(#clip180)" d="M62.9365 333.701 Q59.3254 333.701 57.4967 337.266 Q55.6912 340.808 55.6912 347.937 Q55.6912 355.044 57.4967 358.609 Q59.3254 362.15 62.9365 362.15 Q66.5707 362.15 68.3763 358.609 Q70.205 355.044 70.205 347.937 Q70.205 340.808 68.3763 337.266 Q66.5707 333.701 62.9365 333.701 M62.9365 329.998 Q68.7467 329.998 71.8022 334.604 Q74.8809 339.187 74.8809 347.937 Q74.8809 356.664 71.8022 361.271 Q68.7467 365.854 62.9365 365.854 Q57.1264 365.854 54.0477 361.271 Q50.9921 356.664 50.9921 347.937 Q50.9921 339.187 54.0477 334.604 Q57.1264 329.998 62.9365 329.998 Z" fill="#9eb1be" fill-rule="evenodd" fill-opacity="1" /><path clip-path="url(#clip180)" d="M83.0984 359.303 L87.9827 359.303 L87.9827 365.183 L83.0984 365.183 L83.0984 359.303 Z" fill="#9eb1be" fill-rule="evenodd" fill-opacity="1" /><path clip-path="url(#clip180)" d="M108.168 333.701 Q104.557 333.701 102.728 337.266 Q100.922 340.808 100.922 347.937 Q100.922 355.044 102.728 358.609 Q104.557 362.15 108.168 362.15 Q111.802 362.15 113.608 358.609 Q115.436 355.044 115.436 347.937 Q115.436 340.808 113.608 337.266 Q111.802 333.701 108.168 333.701 M108.168 329.998 Q113.978 329.998 117.033 334.604 Q120.112 339.187 120.112 347.937 Q120.112 356.664 117.033 361.271 Q113.978 365.854 108.168 365.854 Q102.358 365.854 99.2789 361.271 Q96.2234 356.664 96.2234 347.937 Q96.2234 339.187 99.2789 334.604 Q102.358 329.998 108.168 329.998 Z" fill="#9eb1be" fill-rule="evenodd" fill-opacity="1" /><path clip-path="url(#clip180)" d="M132.357 361.247 L148.677 361.247 L148.677 365.183 L126.732 365.183 L126.732 361.247 Q129.394 358.493 133.978 353.863 Q138.584 349.21 139.765 347.868 Q142.01 345.345 142.89 343.609 Q143.793 341.849 143.793 340.16 Q143.793 337.405 141.848 335.669 Q139.927 333.933 136.825 333.933 Q134.626 333.933 132.172 334.697 Q129.742 335.461 126.964 337.011 L126.964 332.289 Q129.788 331.155 132.242 330.576 Q134.695 329.998 136.732 329.998 Q142.103 329.998 145.297 332.683 Q148.492 335.368 148.492 339.859 Q148.492 341.988 147.681 343.91 Q146.894 345.808 144.788 348.4 Q144.209 349.072 141.107 352.289 Q138.006 355.484 132.357 361.247 Z" fill="#9eb1be" fill-rule="evenodd" fill-opacity="1" /><path clip-path="url(#clip180)" d="M168.491 333.701 Q164.88 333.701 163.052 337.266 Q161.246 340.808 161.246 347.937 Q161.246 355.044 163.052 358.609 Q164.88 362.15 168.491 362.15 Q172.126 362.15 173.931 358.609 Q175.76 355.044 175.76 347.937 Q175.76 340.808 173.931 337.266 Q172.126 333.701 168.491 333.701 M168.491 329.998 Q174.302 329.998 177.357 334.604 Q180.436 339.187 180.436 347.937 Q180.436 356.664 177.357 361.271 Q174.302 365.854 168.491 365.854 Q162.681 365.854 159.603 361.271 Q156.547 356.664 156.547 347.937 Q156.547 339.187 159.603 334.604 Q162.681 329.998 168.491 329.998 Z" fill="#9eb1be" fill-rule="evenodd" fill-opacity="1" /><path clip-path="url(#clip180)" d="M1007.19 12.096 L1058.35 12.096 L1058.35 18.9825 L1036.88 18.9825 L1036.88 72.576 L1028.66 72.576 L1028.66 18.9825 L1007.19 18.9825 L1007.19 12.096 Z" fill="#adb2b7" fill-rule="evenodd" fill-opacity="1" /><path clip-path="url(#clip180)" d="M1080.03 34.1734 Q1078.77 33.4443 1077.27 33.1202 Q1075.81 32.7556 1074.03 32.7556 Q1067.71 32.7556 1064.31 36.8875 Q1060.95 40.9789 1060.95 48.6757 L1060.95 72.576 L1053.45 72.576 L1053.45 27.2059 L1060.95 27.2059 L1060.95 34.2544 Q1063.29 30.1225 1067.06 28.1376 Q1070.83 26.1121 1076.22 26.1121 Q1076.99 26.1121 1077.92 26.2337 Q1078.85 26.3147 1079.98 26.5172 L1080.03 34.1734 Z" fill="#adb2b7" fill-rule="evenodd" fill-opacity="1" /><path clip-path="url(#clip180)" d="M1108.46 49.7694 Q1099.43 49.7694 1095.95 51.8354 Q1092.46 53.9013 1092.46 58.8839 Q1092.46 62.8538 1095.05 65.2034 Q1097.69 67.5124 1102.18 67.5124 Q1108.38 67.5124 1112.11 63.1374 Q1115.88 58.7219 1115.88 51.4303 L1115.88 49.7694 L1108.46 49.7694 M1123.33 46.6907 L1123.33 72.576 L1115.88 72.576 L1115.88 65.6895 Q1113.32 69.8214 1109.52 71.8063 Q1105.71 73.7508 1100.2 73.7508 Q1093.23 73.7508 1089.1 69.8619 Q1085.01 65.9325 1085.01 59.3701 Q1085.01 51.7138 1090.11 47.825 Q1095.26 43.9361 1105.42 43.9361 L1115.88 43.9361 L1115.88 43.2069 Q1115.88 38.0623 1112.47 35.2672 Q1109.11 32.4315 1102.99 32.4315 Q1099.1 32.4315 1095.42 33.3632 Q1091.73 34.295 1088.33 36.1584 L1088.33 29.2718 Q1092.42 27.692 1096.27 26.9223 Q1100.12 26.1121 1103.76 26.1121 Q1113.61 26.1121 1118.47 31.2163 Q1123.33 36.3204 1123.33 46.6907 Z" fill="#adb2b7" fill-rule="evenodd" fill-opacity="1" /><path clip-path="url(#clip180)" d="M1138.68 27.2059 L1146.14 27.2059 L1146.14 72.576 L1138.68 72.576 L1138.68 27.2059 M1138.68 9.54393 L1146.14 9.54393 L1146.14 18.9825 L1138.68 18.9825 L1138.68 9.54393 Z" fill="#adb2b7" fill-rule="evenodd" fill-opacity="1" /><path clip-path="url(#clip180)" d="M1199.45 45.1919 L1199.45 72.576 L1191.99 72.576 L1191.99 45.4349 Q1191.99 38.994 1189.48 35.7938 Q1186.97 32.5936 1181.95 32.5936 Q1175.91 32.5936 1172.43 36.4419 Q1168.94 40.2903 1168.94 46.9338 L1168.94 72.576 L1161.45 72.576 L1161.45 27.2059 L1168.94 27.2059 L1168.94 34.2544 Q1171.62 30.163 1175.22 28.1376 Q1178.87 26.1121 1183.61 26.1121 Q1191.43 26.1121 1195.44 30.9732 Q1199.45 35.7938 1199.45 45.1919 Z" fill="#adb2b7" fill-rule="evenodd" fill-opacity="1" /><path clip-path="url(#clip180)" d="M1214.31 27.2059 L1221.77 27.2059 L1221.77 72.576 L1214.31 72.576 L1214.31 27.2059 M1214.31 9.54393 L1221.77 9.54393 L1221.77 18.9825 L1214.31 18.9825 L1214.31 9.54393 Z" fill="#adb2b7" fill-rule="evenodd" fill-opacity="1" /><path clip-path="url(#clip180)" d="M1275.08 45.1919 L1275.08 72.576 L1267.62 72.576 L1267.62 45.4349 Q1267.62 38.994 1265.11 35.7938 Q1262.6 32.5936 1257.58 32.5936 Q1251.54 32.5936 1248.06 36.4419 Q1244.57 40.2903 1244.57 46.9338 L1244.57 72.576 L1237.08 72.576 L1237.08 27.2059 L1244.57 27.2059 L1244.57 34.2544 Q1247.25 30.163 1250.85 28.1376 Q1254.5 26.1121 1259.24 26.1121 Q1267.06 26.1121 1271.07 30.9732 Q1275.08 35.7938 1275.08 45.1919 Z" fill="#adb2b7" fill-rule="evenodd" fill-opacity="1" /><path clip-path="url(#clip180)" d="M1319.8 49.3643 Q1319.8 41.2625 1316.44 36.8065 Q1313.11 32.3505 1307.08 32.3505 Q1301.08 32.3505 1297.72 36.8065 Q1294.4 41.2625 1294.4 49.3643 Q1294.4 57.4256 1297.72 61.8816 Q1301.08 66.3376 1307.08 66.3376 Q1313.11 66.3376 1316.44 61.8816 Q1319.8 57.4256 1319.8 49.3643 M1327.25 66.9452 Q1327.25 78.5308 1322.11 84.1616 Q1316.96 89.8329 1306.35 89.8329 Q1302.42 89.8329 1298.94 89.2252 Q1295.45 88.6581 1292.17 87.4428 L1292.17 80.1917 Q1295.45 81.9741 1298.65 82.8248 Q1301.85 83.6755 1305.17 83.6755 Q1312.51 83.6755 1316.15 79.8271 Q1319.8 76.0193 1319.8 68.282 L1319.8 64.5957 Q1317.49 68.6061 1313.88 70.5911 Q1310.28 72.576 1305.26 72.576 Q1296.91 72.576 1291.81 66.2161 Q1286.7 59.8562 1286.7 49.3643 Q1286.7 38.832 1291.81 32.472 Q1296.91 26.1121 1305.26 26.1121 Q1310.28 26.1121 1313.88 28.0971 Q1317.49 30.082 1319.8 34.0924 L1319.8 27.2059 L1327.25 27.2059 L1327.25 66.9452 Z" fill="#adb2b7" fill-rule="evenodd" fill-opacity="1" /><path clip-path="url(#clip180)" d="M1407.78 48.0275 L1407.78 51.6733 L1373.51 51.6733 Q1374 59.3701 1378.13 63.421 Q1382.3 67.4314 1389.72 67.4314 Q1394.01 67.4314 1398.02 66.3781 Q1402.07 65.3249 1406.04 63.2184 L1406.04 70.267 Q1402.03 71.9684 1397.82 72.8596 Q1393.61 73.7508 1389.27 73.7508 Q1378.41 73.7508 1372.05 67.4314 Q1365.74 61.1119 1365.74 50.3365 Q1365.74 39.1965 1371.73 32.6746 Q1377.77 26.1121 1387.97 26.1121 Q1397.13 26.1121 1402.44 32.0264 Q1407.78 37.9003 1407.78 48.0275 M1400.33 45.84 Q1400.25 39.7232 1396.89 36.0774 Q1393.57 32.4315 1388.06 32.4315 Q1381.82 32.4315 1378.05 35.9558 Q1374.32 39.4801 1373.76 45.8805 L1400.33 45.84 Z" fill="#adb2b7" fill-rule="evenodd" fill-opacity="1" /><path clip-path="url(#clip180)" d="M1446.31 34.1734 Q1445.05 33.4443 1443.55 33.1202 Q1442.1 32.7556 1440.31 32.7556 Q1433.99 32.7556 1430.59 36.8875 Q1427.23 40.9789 1427.23 48.6757 L1427.23 72.576 L1419.73 72.576 L1419.73 27.2059 L1427.23 27.2059 L1427.23 34.2544 Q1429.58 30.1225 1433.35 28.1376 Q1437.11 26.1121 1442.5 26.1121 Q1443.27 26.1121 1444.2 26.2337 Q1445.13 26.3147 1446.27 26.5172 L1446.31 34.1734 Z" fill="#adb2b7" fill-rule="evenodd" fill-opacity="1" /><path clip-path="url(#clip180)" d="M1478.96 34.1734 Q1477.7 33.4443 1476.2 33.1202 Q1474.75 32.7556 1472.96 32.7556 Q1466.64 32.7556 1463.24 36.8875 Q1459.88 40.9789 1459.88 48.6757 L1459.88 72.576 L1452.38 72.576 L1452.38 27.2059 L1459.88 27.2059 L1459.88 34.2544 Q1462.23 30.1225 1466 28.1376 Q1469.76 26.1121 1475.15 26.1121 Q1475.92 26.1121 1476.85 26.2337 Q1477.78 26.3147 1478.92 26.5172 L1478.96 34.1734 Z" fill="#adb2b7" fill-rule="evenodd" fill-opacity="1" /><path clip-path="url(#clip180)" d="M1502.53 32.4315 Q1496.54 32.4315 1493.06 37.1306 Q1489.57 41.7891 1489.57 49.9314 Q1489.57 58.0738 1493.01 62.7728 Q1496.5 67.4314 1502.53 67.4314 Q1508.49 67.4314 1511.97 62.7323 Q1515.46 58.0333 1515.46 49.9314 Q1515.46 41.8701 1511.97 37.1711 Q1508.49 32.4315 1502.53 32.4315 M1502.53 26.1121 Q1512.26 26.1121 1517.81 32.4315 Q1523.36 38.7509 1523.36 49.9314 Q1523.36 61.0714 1517.81 67.4314 Q1512.26 73.7508 1502.53 73.7508 Q1492.77 73.7508 1487.22 67.4314 Q1481.71 61.0714 1481.71 49.9314 Q1481.71 38.7509 1487.22 32.4315 Q1492.77 26.1121 1502.53 26.1121 Z" fill="#adb2b7" fill-rule="evenodd" fill-opacity="1" /><path clip-path="url(#clip180)" d="M1562 34.1734 Q1560.75 33.4443 1559.25 33.1202 Q1557.79 32.7556 1556.01 32.7556 Q1549.69 32.7556 1546.28 36.8875 Q1542.92 40.9789 1542.92 48.6757 L1542.92 72.576 L1535.43 72.576 L1535.43 27.2059 L1542.92 27.2059 L1542.92 34.2544 Q1545.27 30.1225 1549.04 28.1376 Q1552.81 26.1121 1558.19 26.1121 Q1558.96 26.1121 1559.9 26.2337 Q1560.83 26.3147 1561.96 26.5172 L1562 34.1734 Z" fill="#adb2b7" fill-rule="evenodd" fill-opacity="1" /><polyline clip-path="url(#clip182)" style="stroke:#fe4365; stroke-linecap:butt; stroke-linejoin:round; stroke-width:4; stroke-opacity:1; fill:none" points="
  276.898,481.918 304.133,626.076 331.368,281.477 358.603,717.849 385.838,162.047 413.073,889.981 440.308,791.202 467.543,555.974 494.778,748.069 522.014,482.012 
  549.249,619.31 576.484,634.474 603.719,544.006 630.954,1241.79 658.189,740.041 685.424,987.803 712.659,1218.03 739.894,1043.08 767.129,453.078 794.364,985.619 
  821.599,886.887 848.835,656.542 876.07,990.998 903.305,1375.6 930.54,535.107 957.775,1250.6 985.01,345.085 1012.25,452.083 1039.48,1087.7 1066.72,891.974 
  1093.95,952.15 1121.19,1122.24 1148.42,855.079 1175.66,610.949 1202.89,768.553 1230.13,1225.42 1257.36,992.674 1284.6,1139.41 1311.83,1051.56 1339.07,1037.53 
  1366.3,1200.07 1393.54,1112.04 1420.77,1125.68 1448.01,881.465 1475.24,1396.74 1502.48,594.907 1529.71,1087.21 1556.95,799.168 1584.18,878.317 1611.42,1287.54 
  1638.65,1237.65 1665.89,1229.08 1693.12,548.476 1720.36,780.201 1747.59,1241.5 1774.83,957.049 1802.06,1182.96 1829.3,1303.09 1856.53,1022 1883.77,1103.79 
  1911,1019.06 1938.24,1244 1965.47,1176.05 1992.71,1009.06 2019.94,931.726 2047.18,593.133 2074.41,703.749 2101.65,720.627 2128.88,637.801 2156.12,1131.68 
  2183.35,1041.81 2210.59,1447.87 2237.82,702.975 2265.06,986.076 2292.29,1369.27 
  "/>
</svg>
