<?xml version="1.0" encoding="utf-8"?>
<svg xmlns="http://www.w3.org/2000/svg" xmlns:xlink="http://www.w3.org/1999/xlink" width="600" height="400" viewBox="0 0 2400 1600">
<defs>
  <clipPath id="clip860">
    <rect x="0" y="0" width="2400" height="1600"/>
  </clipPath>
</defs>
<path clip-path="url(#clip860)" d="
M0 1600 L2400 1600 L2400 0 L0 0  Z
  " fill="#ffffff" fill-rule="evenodd" fill-opacity="1"/>
<defs>
  <clipPath id="clip861">
    <rect x="480" y="0" width="1681" height="1600"/>
  </clipPath>
</defs>
<path clip-path="url(#clip860)" d="
M186.76 1486.45 L2352.76 1486.45 L2352.76 47.2441 L186.76 47.2441  Z
  " fill="#ffffff" fill-rule="evenodd" fill-opacity="1"/>
<defs>
  <clipPath id="clip862">
    <rect x="186" y="47" width="2167" height="1440"/>
  </clipPath>
</defs>
<polyline clip-path="url(#clip862)" style="stroke:#000000; stroke-linecap:butt; stroke-linejoin:round; stroke-width:2; stroke-opacity:0.1; fill:none" points="
  237.794,1486.45 237.794,47.2441 
  "/>
<polyline clip-path="url(#clip862)" style="stroke:#000000; stroke-linecap:butt; stroke-linejoin:round; stroke-width:2; stroke-opacity:0.1; fill:none" points="
  751.209,1486.45 751.209,47.2441 
  "/>
<polyline clip-path="url(#clip862)" style="stroke:#000000; stroke-linecap:butt; stroke-linejoin:round; stroke-width:2; stroke-opacity:0.1; fill:none" points="
  1264.62,1486.45 1264.62,47.2441 
  "/>
<polyline clip-path="url(#clip862)" style="stroke:#000000; stroke-linecap:butt; stroke-linejoin:round; stroke-width:2; stroke-opacity:0.1; fill:none" points="
  1778.04,1486.45 1778.04,47.2441 
  "/>
<polyline clip-path="url(#clip862)" style="stroke:#000000; stroke-linecap:butt; stroke-linejoin:round; stroke-width:2; stroke-opacity:0.1; fill:none" points="
  2291.45,1486.45 2291.45,47.2441 
  "/>
<polyline clip-path="url(#clip860)" style="stroke:#000000; stroke-linecap:butt; stroke-linejoin:round; stroke-width:4; stroke-opacity:1; fill:none" points="
  186.76,1486.45 2352.76,1486.45 
  "/>
<polyline clip-path="url(#clip860)" style="stroke:#000000; stroke-linecap:butt; stroke-linejoin:round; stroke-width:4; stroke-opacity:1; fill:none" points="
  237.794,1486.45 237.794,1467.55 
  "/>
<polyline clip-path="url(#clip860)" style="stroke:#000000; stroke-linecap:butt; stroke-linejoin:round; stroke-width:4; stroke-opacity:1; fill:none" points="
  751.209,1486.45 751.209,1467.55 
  "/>
<polyline clip-path="url(#clip860)" style="stroke:#000000; stroke-linecap:butt; stroke-linejoin:round; stroke-width:4; stroke-opacity:1; fill:none" points="
  1264.62,1486.45 1264.62,1467.55 
  "/>
<polyline clip-path="url(#clip860)" style="stroke:#000000; stroke-linecap:butt; stroke-linejoin:round; stroke-width:4; stroke-opacity:1; fill:none" points="
  1778.04,1486.45 1778.04,1467.55 
  "/>
<polyline clip-path="url(#clip860)" style="stroke:#000000; stroke-linecap:butt; stroke-linejoin:round; stroke-width:4; stroke-opacity:1; fill:none" points="
  2291.45,1486.45 2291.45,1467.55 
  "/>
<path clip-path="url(#clip860)" d="M237.794 1517.37 Q234.182 1517.37 232.354 1520.93 Q230.548 1524.47 230.548 1531.6 Q230.548 1538.71 232.354 1542.27 Q234.182 1545.82 237.794 1545.82 Q241.428 1545.82 243.233 1542.27 Q245.062 1538.71 245.062 1531.6 Q245.062 1524.47 243.233 1520.93 Q241.428 1517.37 237.794 1517.37 M237.794 1513.66 Q243.604 1513.66 246.659 1518.27 Q249.738 1522.85 249.738 1531.6 Q249.738 1540.33 246.659 1544.94 Q243.604 1549.52 237.794 1549.52 Q231.983 1549.52 228.905 1544.94 Q225.849 1540.33 225.849 1531.6 Q225.849 1522.85 228.905 1518.27 Q231.983 1513.66 237.794 1513.66 Z" fill="#000000" fill-rule="evenodd" fill-opacity="1" /><path clip-path="url(#clip860)" d="M725.908 1514.29 L744.264 1514.29 L744.264 1518.22 L730.19 1518.22 L730.19 1526.7 Q731.209 1526.35 732.227 1526.19 Q733.246 1526 734.264 1526 Q740.051 1526 743.431 1529.17 Q746.811 1532.34 746.811 1537.76 Q746.811 1543.34 743.338 1546.44 Q739.866 1549.52 733.547 1549.52 Q731.371 1549.52 729.102 1549.15 Q726.857 1548.78 724.45 1548.04 L724.45 1543.34 Q726.533 1544.47 728.755 1545.03 Q730.977 1545.58 733.454 1545.58 Q737.459 1545.58 739.797 1543.48 Q742.135 1541.37 742.135 1537.76 Q742.135 1534.15 739.797 1532.04 Q737.459 1529.94 733.454 1529.94 Q731.579 1529.94 729.704 1530.35 Q727.852 1530.77 725.908 1531.65 L725.908 1514.29 Z" fill="#000000" fill-rule="evenodd" fill-opacity="1" /><path clip-path="url(#clip860)" d="M766.023 1517.37 Q762.412 1517.37 760.584 1520.93 Q758.778 1524.47 758.778 1531.6 Q758.778 1538.71 760.584 1542.27 Q762.412 1545.82 766.023 1545.82 Q769.658 1545.82 771.463 1542.27 Q773.292 1538.71 773.292 1531.6 Q773.292 1524.47 771.463 1520.93 Q769.658 1517.37 766.023 1517.37 M766.023 1513.66 Q771.834 1513.66 774.889 1518.27 Q777.968 1522.85 777.968 1531.6 Q777.968 1540.33 774.889 1544.94 Q771.834 1549.52 766.023 1549.52 Q760.213 1549.52 757.135 1544.94 Q754.079 1540.33 754.079 1531.6 Q754.079 1522.85 757.135 1518.27 Q760.213 1513.66 766.023 1513.66 Z" fill="#000000" fill-rule="evenodd" fill-opacity="1" /><path clip-path="url(#clip860)" d="M1224.23 1544.91 L1231.87 1544.91 L1231.87 1518.55 L1223.56 1520.21 L1223.56 1515.95 L1231.82 1514.29 L1236.5 1514.29 L1236.5 1544.91 L1244.14 1544.91 L1244.14 1548.85 L1224.23 1548.85 L1224.23 1544.91 Z" fill="#000000" fill-rule="evenodd" fill-opacity="1" /><path clip-path="url(#clip860)" d="M1263.58 1517.37 Q1259.97 1517.37 1258.14 1520.93 Q1256.34 1524.47 1256.34 1531.6 Q1256.34 1538.71 1258.14 1542.27 Q1259.97 1545.82 1263.58 1545.82 Q1267.22 1545.82 1269.02 1542.27 Q1270.85 1538.71 1270.85 1531.6 Q1270.85 1524.47 1269.02 1520.93 Q1267.22 1517.37 1263.58 1517.37 M1263.58 1513.66 Q1269.39 1513.66 1272.45 1518.27 Q1275.53 1522.85 1275.53 1531.6 Q1275.53 1540.33 1272.45 1544.94 Q1269.39 1549.52 1263.58 1549.52 Q1257.77 1549.52 1254.69 1544.94 Q1251.64 1540.33 1251.64 1531.6 Q1251.64 1522.85 1254.69 1518.27 Q1257.77 1513.66 1263.58 1513.66 Z" fill="#000000" fill-rule="evenodd" fill-opacity="1" /><path clip-path="url(#clip860)" d="M1293.74 1517.37 Q1290.13 1517.37 1288.3 1520.93 Q1286.5 1524.47 1286.5 1531.6 Q1286.5 1538.71 1288.3 1542.27 Q1290.13 1545.82 1293.74 1545.82 Q1297.38 1545.82 1299.18 1542.27 Q1301.01 1538.71 1301.01 1531.6 Q1301.01 1524.47 1299.18 1520.93 Q1297.38 1517.37 1293.74 1517.37 M1293.74 1513.66 Q1299.55 1513.66 1302.61 1518.27 Q1305.69 1522.85 1305.69 1531.6 Q1305.69 1540.33 1302.61 1544.94 Q1299.55 1549.52 1293.74 1549.52 Q1287.93 1549.52 1284.86 1544.94 Q1281.8 1540.33 1281.8 1531.6 Q1281.8 1522.85 1284.86 1518.27 Q1287.93 1513.66 1293.74 1513.66 Z" fill="#000000" fill-rule="evenodd" fill-opacity="1" /><path clip-path="url(#clip860)" d="M1737.65 1544.91 L1745.28 1544.91 L1745.28 1518.55 L1736.97 1520.21 L1736.97 1515.95 L1745.24 1514.29 L1749.91 1514.29 L1749.91 1544.91 L1757.55 1544.91 L1757.55 1548.85 L1737.65 1548.85 L1737.65 1544.91 Z" fill="#000000" fill-rule="evenodd" fill-opacity="1" /><path clip-path="url(#clip860)" d="M1767.04 1514.29 L1785.4 1514.29 L1785.4 1518.22 L1771.33 1518.22 L1771.33 1526.7 Q1772.34 1526.35 1773.36 1526.19 Q1774.38 1526 1775.4 1526 Q1781.19 1526 1784.57 1529.17 Q1787.95 1532.34 1787.95 1537.76 Q1787.95 1543.34 1784.47 1546.44 Q1781 1549.52 1774.68 1549.52 Q1772.51 1549.52 1770.24 1549.15 Q1767.99 1548.78 1765.59 1548.04 L1765.59 1543.34 Q1767.67 1544.47 1769.89 1545.03 Q1772.11 1545.58 1774.59 1545.58 Q1778.59 1545.58 1780.93 1543.48 Q1783.27 1541.37 1783.27 1537.76 Q1783.27 1534.15 1780.93 1532.04 Q1778.59 1529.94 1774.59 1529.94 Q1772.71 1529.94 1770.84 1530.35 Q1768.99 1530.77 1767.04 1531.65 L1767.04 1514.29 Z" fill="#000000" fill-rule="evenodd" fill-opacity="1" /><path clip-path="url(#clip860)" d="M1807.16 1517.37 Q1803.55 1517.37 1801.72 1520.93 Q1799.91 1524.47 1799.91 1531.6 Q1799.91 1538.71 1801.72 1542.27 Q1803.55 1545.82 1807.16 1545.82 Q1810.79 1545.82 1812.6 1542.27 Q1814.43 1538.71 1814.43 1531.6 Q1814.43 1524.47 1812.6 1520.93 Q1810.79 1517.37 1807.16 1517.37 M1807.16 1513.66 Q1812.97 1513.66 1816.02 1518.27 Q1819.1 1522.85 1819.1 1531.6 Q1819.1 1540.33 1816.02 1544.94 Q1812.97 1549.52 1807.16 1549.52 Q1801.35 1549.52 1798.27 1544.94 Q1795.21 1540.33 1795.21 1531.6 Q1795.21 1522.85 1798.27 1518.27 Q1801.35 1513.66 1807.16 1513.66 Z" fill="#000000" fill-rule="evenodd" fill-opacity="1" /><path clip-path="url(#clip860)" d="M2255.15 1544.91 L2271.47 1544.91 L2271.47 1548.85 L2249.52 1548.85 L2249.52 1544.91 Q2252.18 1542.16 2256.77 1537.53 Q2261.37 1532.88 2262.55 1531.53 Q2264.8 1529.01 2265.68 1527.27 Q2266.58 1525.51 2266.58 1523.82 Q2266.58 1521.07 2264.64 1519.33 Q2262.72 1517.6 2259.61 1517.6 Q2257.41 1517.6 2254.96 1518.36 Q2252.53 1519.13 2249.75 1520.68 L2249.75 1515.95 Q2252.58 1514.82 2255.03 1514.24 Q2257.48 1513.66 2259.52 1513.66 Q2264.89 1513.66 2268.09 1516.35 Q2271.28 1519.03 2271.28 1523.52 Q2271.28 1525.65 2270.47 1527.57 Q2269.68 1529.47 2267.58 1532.07 Q2267 1532.74 2263.9 1535.95 Q2260.79 1539.15 2255.15 1544.91 Z" fill="#000000" fill-rule="evenodd" fill-opacity="1" /><path clip-path="url(#clip860)" d="M2291.28 1517.37 Q2287.67 1517.37 2285.84 1520.93 Q2284.04 1524.47 2284.04 1531.6 Q2284.04 1538.71 2285.84 1542.27 Q2287.67 1545.82 2291.28 1545.82 Q2294.91 1545.82 2296.72 1542.27 Q2298.55 1538.71 2298.55 1531.6 Q2298.55 1524.47 2296.72 1520.93 Q2294.91 1517.37 2291.28 1517.37 M2291.28 1513.66 Q2297.09 1513.66 2300.15 1518.27 Q2303.22 1522.85 2303.22 1531.6 Q2303.22 1540.33 2300.15 1544.94 Q2297.09 1549.52 2291.28 1549.52 Q2285.47 1549.52 2282.39 1544.94 Q2279.34 1540.33 2279.34 1531.6 Q2279.34 1522.85 2282.39 1518.27 Q2285.47 1513.66 2291.28 1513.66 Z" fill="#000000" fill-rule="evenodd" fill-opacity="1" /><path clip-path="url(#clip860)" d="M2321.44 1517.37 Q2317.83 1517.37 2316 1520.93 Q2314.2 1524.47 2314.2 1531.6 Q2314.2 1538.71 2316 1542.27 Q2317.83 1545.82 2321.44 1545.82 Q2325.08 1545.82 2326.88 1542.27 Q2328.71 1538.71 2328.71 1531.6 Q2328.71 1524.47 2326.88 1520.93 Q2325.08 1517.37 2321.44 1517.37 M2321.44 1513.66 Q2327.25 1513.66 2330.31 1518.27 Q2333.39 1522.85 2333.39 1531.6 Q2333.39 1540.33 2330.31 1544.94 Q2327.25 1549.52 2321.44 1549.52 Q2315.63 1549.52 2312.55 1544.94 Q2309.5 1540.33 2309.5 1531.6 Q2309.5 1522.85 2312.55 1518.27 Q2315.63 1513.66 2321.44 1513.66 Z" fill="#000000" fill-rule="evenodd" fill-opacity="1" /><polyline clip-path="url(#clip862)" style="stroke:#000000; stroke-linecap:butt; stroke-linejoin:round; stroke-width:2; stroke-opacity:0.1; fill:none" points="
  186.76,1206.97 2352.76,1206.97 
  "/>
<polyline clip-path="url(#clip862)" style="stroke:#000000; stroke-linecap:butt; stroke-linejoin:round; stroke-width:2; stroke-opacity:0.1; fill:none" points="
  186.76,827.326 2352.76,827.326 
  "/>
<polyline clip-path="url(#clip862)" style="stroke:#000000; stroke-linecap:butt; stroke-linejoin:round; stroke-width:2; stroke-opacity:0.1; fill:none" points="
  186.76,447.681 2352.76,447.681 
  "/>
<polyline clip-path="url(#clip862)" style="stroke:#000000; stroke-linecap:butt; stroke-linejoin:round; stroke-width:2; stroke-opacity:0.1; fill:none" points="
  186.76,68.0358 2352.76,68.0358 
  "/>
<polyline clip-path="url(#clip860)" style="stroke:#000000; stroke-linecap:butt; stroke-linejoin:round; stroke-width:4; stroke-opacity:1; fill:none" points="
  186.76,1486.45 186.76,47.2441 
  "/>
<polyline clip-path="url(#clip860)" style="stroke:#000000; stroke-linecap:butt; stroke-linejoin:round; stroke-width:4; stroke-opacity:1; fill:none" points="
  186.76,1206.97 205.658,1206.97 
  "/>
<polyline clip-path="url(#clip860)" style="stroke:#000000; stroke-linecap:butt; stroke-linejoin:round; stroke-width:4; stroke-opacity:1; fill:none" points="
  186.76,827.326 205.658,827.326 
  "/>
<polyline clip-path="url(#clip860)" style="stroke:#000000; stroke-linecap:butt; stroke-linejoin:round; stroke-width:4; stroke-opacity:1; fill:none" points="
  186.76,447.681 205.658,447.681 
  "/>
<polyline clip-path="url(#clip860)" style="stroke:#000000; stroke-linecap:butt; stroke-linejoin:round; stroke-width:4; stroke-opacity:1; fill:none" points="
  186.76,68.0358 205.658,68.0358 
  "/>
<path clip-path="url(#clip860)" d="M65.0198 1192.77 Q61.4087 1192.77 59.58 1196.33 Q57.7745 1199.88 57.7745 1207.01 Q57.7745 1214.11 59.58 1217.68 Q61.4087 1221.22 65.0198 1221.22 Q68.6541 1221.22 70.4596 1217.68 Q72.2883 1214.11 72.2883 1207.01 Q72.2883 1199.88 70.4596 1196.33 Q68.6541 1192.77 65.0198 1192.77 M65.0198 1189.07 Q70.83 1189.07 73.8855 1193.67 Q76.9642 1198.26 76.9642 1207.01 Q76.9642 1215.73 73.8855 1220.34 Q70.83 1224.92 65.0198 1224.92 Q59.2097 1224.92 56.131 1220.34 Q53.0754 1215.73 53.0754 1207.01 Q53.0754 1198.26 56.131 1193.67 Q59.2097 1189.07 65.0198 1189.07 Z" fill="#000000" fill-rule="evenodd" fill-opacity="1" /><path clip-path="url(#clip860)" d="M85.1818 1218.37 L90.066 1218.37 L90.066 1224.25 L85.1818 1224.25 L85.1818 1218.37 Z" fill="#000000" fill-rule="evenodd" fill-opacity="1" /><path clip-path="url(#clip860)" d="M110.251 1192.77 Q106.64 1192.77 104.811 1196.33 Q103.006 1199.88 103.006 1207.01 Q103.006 1214.11 104.811 1217.68 Q106.64 1221.22 110.251 1221.22 Q113.885 1221.22 115.691 1217.68 Q117.52 1214.11 117.52 1207.01 Q117.52 1199.88 115.691 1196.33 Q113.885 1192.77 110.251 1192.77 M110.251 1189.07 Q116.061 1189.07 119.117 1193.67 Q122.195 1198.26 122.195 1207.01 Q122.195 1215.73 119.117 1220.34 Q116.061 1224.92 110.251 1224.92 Q104.441 1224.92 101.362 1220.34 Q98.3067 1215.73 98.3067 1207.01 Q98.3067 1198.26 101.362 1193.67 Q104.441 1189.07 110.251 1189.07 Z" fill="#000000" fill-rule="evenodd" fill-opacity="1" /><path clip-path="url(#clip860)" d="M134.441 1220.32 L150.76 1220.32 L150.76 1224.25 L128.816 1224.25 L128.816 1220.32 Q131.478 1217.56 136.061 1212.93 Q140.668 1208.28 141.848 1206.94 Q144.093 1204.41 144.973 1202.68 Q145.876 1200.92 145.876 1199.23 Q145.876 1196.47 143.931 1194.74 Q142.01 1193 138.908 1193 Q136.709 1193 134.256 1193.76 Q131.825 1194.53 129.047 1196.08 L129.047 1191.36 Q131.871 1190.22 134.325 1189.64 Q136.779 1189.07 138.816 1189.07 Q144.186 1189.07 147.38 1191.75 Q150.575 1194.44 150.575 1198.93 Q150.575 1201.06 149.765 1202.98 Q148.978 1204.88 146.871 1207.47 Q146.293 1208.14 143.191 1211.36 Q140.089 1214.55 134.441 1220.32 Z" fill="#000000" fill-rule="evenodd" fill-opacity="1" /><path clip-path="url(#clip860)" d="M62.9365 813.124 Q59.3254 813.124 57.4967 816.689 Q55.6912 820.231 55.6912 827.36 Q55.6912 834.467 57.4967 838.032 Q59.3254 841.573 62.9365 841.573 Q66.5707 841.573 68.3763 838.032 Q70.205 834.467 70.205 827.36 Q70.205 820.231 68.3763 816.689 Q66.5707 813.124 62.9365 813.124 M62.9365 809.421 Q68.7467 809.421 71.8022 814.027 Q74.8809 818.61 74.8809 827.36 Q74.8809 836.087 71.8022 840.694 Q68.7467 845.277 62.9365 845.277 Q57.1264 845.277 54.0477 840.694 Q50.9921 836.087 50.9921 827.36 Q50.9921 818.61 54.0477 814.027 Q57.1264 809.421 62.9365 809.421 Z" fill="#000000" fill-rule="evenodd" fill-opacity="1" /><path clip-path="url(#clip860)" d="M83.0984 838.726 L87.9827 838.726 L87.9827 844.606 L83.0984 844.606 L83.0984 838.726 Z" fill="#000000" fill-rule="evenodd" fill-opacity="1" /><path clip-path="url(#clip860)" d="M108.168 813.124 Q104.557 813.124 102.728 816.689 Q100.922 820.231 100.922 827.36 Q100.922 834.467 102.728 838.032 Q104.557 841.573 108.168 841.573 Q111.802 841.573 113.608 838.032 Q115.436 834.467 115.436 827.36 Q115.436 820.231 113.608 816.689 Q111.802 813.124 108.168 813.124 M108.168 809.421 Q113.978 809.421 117.033 814.027 Q120.112 818.61 120.112 827.36 Q120.112 836.087 117.033 840.694 Q113.978 845.277 108.168 845.277 Q102.358 845.277 99.2789 840.694 Q96.2234 836.087 96.2234 827.36 Q96.2234 818.61 99.2789 814.027 Q102.358 809.421 108.168 809.421 Z" fill="#000000" fill-rule="evenodd" fill-opacity="1" /><path clip-path="url(#clip860)" d="M141.177 814.12 L129.371 832.569 L141.177 832.569 L141.177 814.12 M139.95 810.046 L145.83 810.046 L145.83 832.569 L150.76 832.569 L150.76 836.457 L145.83 836.457 L145.83 844.606 L141.177 844.606 L141.177 836.457 L125.575 836.457 L125.575 831.944 L139.95 810.046 Z" fill="#000000" fill-rule="evenodd" fill-opacity="1" /><path clip-path="url(#clip860)" d="M63.2606 433.479 Q59.6495 433.479 57.8208 437.044 Q56.0152 440.586 56.0152 447.715 Q56.0152 454.822 57.8208 458.387 Q59.6495 461.928 63.2606 461.928 Q66.8948 461.928 68.7004 458.387 Q70.5291 454.822 70.5291 447.715 Q70.5291 440.586 68.7004 437.044 Q66.8948 433.479 63.2606 433.479 M63.2606 429.776 Q69.0707 429.776 72.1263 434.382 Q75.205 438.965 75.205 447.715 Q75.205 456.442 72.1263 461.049 Q69.0707 465.632 63.2606 465.632 Q57.4504 465.632 54.3717 461.049 Q51.3162 456.442 51.3162 447.715 Q51.3162 438.965 54.3717 434.382 Q57.4504 429.776 63.2606 429.776 Z" fill="#000000" fill-rule="evenodd" fill-opacity="1" /><path clip-path="url(#clip860)" d="M83.4225 459.081 L88.3067 459.081 L88.3067 464.961 L83.4225 464.961 L83.4225 459.081 Z" fill="#000000" fill-rule="evenodd" fill-opacity="1" /><path clip-path="url(#clip860)" d="M108.492 433.479 Q104.881 433.479 103.052 437.044 Q101.246 440.586 101.246 447.715 Q101.246 454.822 103.052 458.387 Q104.881 461.928 108.492 461.928 Q112.126 461.928 113.932 458.387 Q115.76 454.822 115.76 447.715 Q115.76 440.586 113.932 437.044 Q112.126 433.479 108.492 433.479 M108.492 429.776 Q114.302 429.776 117.358 434.382 Q120.436 438.965 120.436 447.715 Q120.436 456.442 117.358 461.049 Q114.302 465.632 108.492 465.632 Q102.682 465.632 99.603 461.049 Q96.5474 456.442 96.5474 447.715 Q96.5474 438.965 99.603 434.382 Q102.682 429.776 108.492 429.776 Z" fill="#000000" fill-rule="evenodd" fill-opacity="1" /><path clip-path="url(#clip860)" d="M139.232 445.817 Q136.084 445.817 134.232 447.97 Q132.404 450.123 132.404 453.873 Q132.404 457.6 134.232 459.776 Q136.084 461.928 139.232 461.928 Q142.381 461.928 144.209 459.776 Q146.061 457.6 146.061 453.873 Q146.061 450.123 144.209 447.97 Q142.381 445.817 139.232 445.817 M148.515 431.165 L148.515 435.424 Q146.756 434.59 144.95 434.151 Q143.168 433.711 141.408 433.711 Q136.779 433.711 134.325 436.836 Q131.894 439.961 131.547 446.28 Q132.913 444.266 134.973 443.202 Q137.033 442.114 139.51 442.114 Q144.718 442.114 147.728 445.285 Q150.76 448.433 150.76 453.873 Q150.76 459.197 147.612 462.414 Q144.464 465.632 139.232 465.632 Q133.237 465.632 130.066 461.049 Q126.894 456.442 126.894 447.715 Q126.894 439.521 130.783 434.66 Q134.672 429.776 141.223 429.776 Q142.982 429.776 144.765 430.123 Q146.57 430.47 148.515 431.165 Z" fill="#000000" fill-rule="evenodd" fill-opacity="1" /><path clip-path="url(#clip860)" d="M63.5152 53.8345 Q59.9041 53.8345 58.0754 57.3993 Q56.2699 60.9409 56.2699 68.0705 Q56.2699 75.1769 58.0754 78.7417 Q59.9041 82.2834 63.5152 82.2834 Q67.1494 82.2834 68.955 78.7417 Q70.7837 75.1769 70.7837 68.0705 Q70.7837 60.9409 68.955 57.3993 Q67.1494 53.8345 63.5152 53.8345 M63.5152 50.1308 Q69.3254 50.1308 72.3809 54.7372 Q75.4596 59.3205 75.4596 68.0705 Q75.4596 76.7973 72.3809 81.4038 Q69.3254 85.9871 63.5152 85.9871 Q57.7051 85.9871 54.6264 81.4038 Q51.5708 76.7973 51.5708 68.0705 Q51.5708 59.3205 54.6264 54.7372 Q57.7051 50.1308 63.5152 50.1308 Z" fill="#000000" fill-rule="evenodd" fill-opacity="1" /><path clip-path="url(#clip860)" d="M83.6771 79.4362 L88.5614 79.4362 L88.5614 85.3158 L83.6771 85.3158 L83.6771 79.4362 Z" fill="#000000" fill-rule="evenodd" fill-opacity="1" /><path clip-path="url(#clip860)" d="M108.746 53.8345 Q105.135 53.8345 103.307 57.3993 Q101.501 60.9409 101.501 68.0705 Q101.501 75.1769 103.307 78.7417 Q105.135 82.2834 108.746 82.2834 Q112.381 82.2834 114.186 78.7417 Q116.015 75.1769 116.015 68.0705 Q116.015 60.9409 114.186 57.3993 Q112.381 53.8345 108.746 53.8345 M108.746 50.1308 Q114.557 50.1308 117.612 54.7372 Q120.691 59.3205 120.691 68.0705 Q120.691 76.7973 117.612 81.4038 Q114.557 85.9871 108.746 85.9871 Q102.936 85.9871 99.8576 81.4038 Q96.8021 76.7973 96.8021 68.0705 Q96.8021 59.3205 99.8576 54.7372 Q102.936 50.1308 108.746 50.1308 Z" fill="#000000" fill-rule="evenodd" fill-opacity="1" /><path clip-path="url(#clip860)" d="M138.908 68.9038 Q135.575 68.9038 133.654 70.6862 Q131.756 72.4686 131.756 75.5936 Q131.756 78.7186 133.654 80.501 Q135.575 82.2834 138.908 82.2834 Q142.242 82.2834 144.163 80.501 Q146.084 78.6954 146.084 75.5936 Q146.084 72.4686 144.163 70.6862 Q142.265 68.9038 138.908 68.9038 M134.232 66.9131 Q131.223 66.1724 129.533 64.1122 Q127.867 62.052 127.867 59.0891 Q127.867 54.9456 130.807 52.5382 Q133.769 50.1308 138.908 50.1308 Q144.07 50.1308 147.01 52.5382 Q149.95 54.9456 149.95 59.0891 Q149.95 62.052 148.26 64.1122 Q146.593 66.1724 143.607 66.9131 Q146.987 67.7001 148.862 69.9918 Q150.76 72.2834 150.76 75.5936 Q150.76 80.6167 147.681 83.3019 Q144.626 85.9871 138.908 85.9871 Q133.191 85.9871 130.112 83.3019 Q127.057 80.6167 127.057 75.5936 Q127.057 72.2834 128.955 69.9918 Q130.853 67.7001 134.232 66.9131 M132.519 59.5289 Q132.519 62.2141 134.186 63.7187 Q135.876 65.2233 138.908 65.2233 Q141.918 65.2233 143.607 63.7187 Q145.32 62.2141 145.32 59.5289 Q145.32 56.8437 143.607 55.3391 Q141.918 53.8345 138.908 53.8345 Q135.876 53.8345 134.186 55.3391 Q132.519 56.8437 132.519 59.5289 Z" fill="#000000" fill-rule="evenodd" fill-opacity="1" /><polyline clip-path="url(#clip862)" style="stroke:#e69f00; stroke-linecap:butt; stroke-linejoin:round; stroke-width:4; stroke-opacity:1; fill:none" points="
  248.062,87.9763 258.33,686.923 268.598,562.67 278.867,743.578 289.135,830.879 299.403,886.677 309.672,859.652 319.94,859.519 330.208,833.939 340.477,1060.48 
  350.745,1018.4 361.013,1009 371.282,1084.83 381.55,1166.66 391.818,1020.63 402.086,1164.05 412.355,1158.79 422.623,1230.55 432.891,1231.38 443.16,1132.71 
  453.428,1086.32 463.696,1162.98 473.965,1166.91 484.233,1212.16 494.501,1193.85 504.769,1136.29 515.038,1234.73 525.306,1152.69 535.574,1215.29 545.843,1263.09 
  556.111,1211.61 566.379,1157.35 576.648,1206.95 586.916,1225.6 597.184,1217.48 607.452,1276.8 617.721,1256.12 627.989,1248.35 638.257,1321.69 648.526,1247.27 
  658.794,1136.88 669.062,1244.11 679.331,1240.78 689.599,1202.31 699.867,1198.81 710.136,1323.8 720.404,1311.55 730.672,1238.37 740.94,1315.09 751.209,1182.77 
  761.477,1254.27 771.745,1274.52 782.014,1280.08 792.282,1290.87 802.55,1319.7 812.819,1304.85 823.087,1313.63 833.355,1316.38 843.623,1359.88 853.892,1236.74 
  864.16,1305.88 874.428,1246.05 884.697,1247.63 894.965,1321.72 905.233,1257.47 915.502,1339.49 925.77,1319.64 936.038,1348.17 946.306,1321.42 956.575,1320.35 
  966.843,1367.33 977.111,1340.15 987.38,1377.88 997.648,1275.12 1007.92,1304.29 1018.18,1305.51 1028.45,1388 1038.72,1346.59 1048.99,1359.19 1059.26,1369.57 
  1069.53,1361.73 1079.79,1337.18 1090.06,1355.43 1100.33,1345.94 1110.6,1289.7 1120.87,1312.43 1131.14,1305.91 1141.4,1284.78 1151.67,1344.59 1161.94,1287.28 
  1172.21,1346.2 1182.48,1290.11 1192.75,1334.96 1203.01,1284.15 1213.28,1250.2 1223.55,1277.84 1233.82,1343.16 1244.09,1363.95 1254.36,1407.43 1264.62,1343.97 
  1274.89,1342.54 1285.16,1339.72 1295.43,1336.86 1305.7,1348.33 1315.97,1275.75 1326.23,1375.05 1336.5,1354.42 1346.77,1359.92 1357.04,1375.37 1367.31,1392 
  1377.58,1390.16 1387.84,1272.28 1398.11,1319.34 1408.38,1344.82 1418.65,1289.85 1428.92,1403.25 1439.19,1298.67 1449.45,1303.36 1459.72,1377.97 1469.99,1343 
  1480.26,1322.05 1490.53,1378.27 1500.79,1382.19 1511.06,1362.72 1521.33,1373.37 1531.6,1352.97 1541.87,1367.15 1552.14,1365.12 1562.4,1373.55 1572.67,1343.8 
  1582.94,1393.46 1593.21,1357.5 1603.48,1350.55 1613.75,1394.27 1624.01,1364.63 1634.28,1386.76 1644.55,1340.34 1654.82,1366.06 1665.09,1421.04 1675.36,1347.37 
  1685.62,1317.95 1695.89,1375.18 1706.16,1355.6 1716.43,1281.21 1726.7,1367.88 1736.97,1351.23 1747.23,1374.92 1757.5,1379.66 1767.77,1380.52 1778.04,1391.27 
  1788.31,1425.41 1798.58,1385.16 1808.84,1341.97 1819.11,1380.36 1829.38,1376.76 1839.65,1367.44 1849.92,1351.71 1860.19,1367.61 1870.45,1358.11 1880.72,1245.49 
  1890.99,1405.72 1901.26,1372.61 1911.53,1346.23 1921.8,1398.64 1932.06,1404.55 1942.33,1385.6 1952.6,1342.09 1962.87,1310.2 1973.14,1340.32 1983.41,1388.09 
  1993.67,1356.05 2003.94,1368.94 2014.21,1399.51 2024.48,1340.28 2034.75,1328.44 2045.01,1353.88 2055.28,1317.13 2065.55,1342.02 2075.82,1418.52 2086.09,1395.67 
  2096.36,1445.72 2106.62,1400.39 2116.89,1285.47 2127.16,1419.83 2137.43,1352.58 2147.7,1405.25 2157.97,1337.42 2168.23,1389.58 2178.5,1399.24 2188.77,1399.84 
  2199.04,1357.88 2209.31,1373.55 2219.58,1389.26 2229.84,1331.94 2240.11,1373.7 2250.38,1391.02 2260.65,1349.41 2270.92,1390.71 2281.19,1376.61 2291.45,1364.09 
  
  "/>
<path clip-path="url(#clip860)" d="
M1988.13 198.898 L2280.56 198.898 L2280.56 95.2176 L1988.13 95.2176  Z
  " fill="#ffffff" fill-rule="evenodd" fill-opacity="1"/>
<polyline clip-path="url(#clip860)" style="stroke:#000000; stroke-linecap:butt; stroke-linejoin:round; stroke-width:4; stroke-opacity:1; fill:none" points="
  1988.13,198.898 2280.56,198.898 2280.56,95.2176 1988.13,95.2176 1988.13,198.898 
  "/>
<polyline clip-path="url(#clip860)" style="stroke:#e69f00; stroke-linecap:butt; stroke-linejoin:round; stroke-width:4; stroke-opacity:1; fill:none" points="
  2012.13,147.058 2156.13,147.058 
  "/>
<path clip-path="url(#clip860)" d="M2193.97 166.745 Q2192.16 171.375 2190.45 172.787 Q2188.74 174.199 2185.87 174.199 L2182.46 174.199 L2182.46 170.634 L2184.96 170.634 Q2186.72 170.634 2187.7 169.8 Q2188.67 168.967 2189.85 165.865 L2190.61 163.921 L2180.13 138.412 L2184.64 138.412 L2192.74 158.689 L2200.84 138.412 L2205.36 138.412 L2193.97 166.745 Z" fill="#000000" fill-rule="evenodd" fill-opacity="1" /><path clip-path="url(#clip860)" d="M2212.65 160.402 L2220.29 160.402 L2220.29 134.037 L2211.98 135.703 L2211.98 131.444 L2220.24 129.778 L2224.92 129.778 L2224.92 160.402 L2232.56 160.402 L2232.56 164.338 L2212.65 164.338 L2212.65 160.402 Z" fill="#000000" fill-rule="evenodd" fill-opacity="1" /></svg>
