<?xml version="1.0" encoding="utf-8"?>
<svg xmlns="http://www.w3.org/2000/svg" xmlns:xlink="http://www.w3.org/1999/xlink" width="600" height="400" viewBox="0 0 2400 1600">
<defs>
  <clipPath id="clip140">
    <rect x="0" y="0" width="2400" height="1600"/>
  </clipPath>
</defs>
<path clip-path="url(#clip140)" d="
M0 1600 L2400 1600 L2400 0 L0 0  Z
  " fill="#363d46" fill-rule="evenodd" fill-opacity="1"/>
<defs>
  <clipPath id="clip141">
    <rect x="480" y="0" width="1681" height="1600"/>
  </clipPath>
</defs>
<path clip-path="url(#clip140)" d="
M186.76 1486.45 L2352.76 1486.45 L2352.76 47.2441 L186.76 47.2441  Z
  " fill="#30343b" fill-rule="evenodd" fill-opacity="1"/>
<defs>
  <clipPath id="clip142">
    <rect x="186" y="47" width="2167" height="1440"/>
  </clipPath>
</defs>
<polyline clip-path="url(#clip142)" style="stroke:#adb2b7; stroke-linecap:butt; stroke-linejoin:round; stroke-width:2; stroke-opacity:0.1; fill:none" points="
  237.794,1486.45 237.794,47.2441 
  "/>
<polyline clip-path="url(#clip142)" style="stroke:#adb2b7; stroke-linecap:butt; stroke-linejoin:round; stroke-width:2; stroke-opacity:0.1; fill:none" points="
  751.209,1486.45 751.209,47.2441 
  "/>
<polyline clip-path="url(#clip142)" style="stroke:#adb2b7; stroke-linecap:butt; stroke-linejoin:round; stroke-width:2; stroke-opacity:0.1; fill:none" points="
  1264.62,1486.45 1264.62,47.2441 
  "/>
<polyline clip-path="url(#clip142)" style="stroke:#adb2b7; stroke-linecap:butt; stroke-linejoin:round; stroke-width:2; stroke-opacity:0.1; fill:none" points="
  1778.04,1486.45 1778.04,47.2441 
  "/>
<polyline clip-path="url(#clip142)" style="stroke:#adb2b7; stroke-linecap:butt; stroke-linejoin:round; stroke-width:2; stroke-opacity:0.1; fill:none" points="
  2291.45,1486.45 2291.45,47.2441 
  "/>
<polyline clip-path="url(#clip140)" style="stroke:#adb2b7; stroke-linecap:butt; stroke-linejoin:round; stroke-width:4; stroke-opacity:1; fill:none" points="
  186.76,1486.45 2352.76,1486.45 
  "/>
<polyline clip-path="url(#clip140)" style="stroke:#adb2b7; stroke-linecap:butt; stroke-linejoin:round; stroke-width:4; stroke-opacity:1; fill:none" points="
  237.794,1486.45 237.794,1467.55 
  "/>
<polyline clip-path="url(#clip140)" style="stroke:#adb2b7; stroke-linecap:butt; stroke-linejoin:round; stroke-width:4; stroke-opacity:1; fill:none" points="
  751.209,1486.45 751.209,1467.55 
  "/>
<polyline clip-path="url(#clip140)" style="stroke:#adb2b7; stroke-linecap:butt; stroke-linejoin:round; stroke-width:4; stroke-opacity:1; fill:none" points="
  1264.62,1486.45 1264.62,1467.55 
  "/>
<polyline clip-path="url(#clip140)" style="stroke:#adb2b7; stroke-linecap:butt; stroke-linejoin:round; stroke-width:4; stroke-opacity:1; fill:none" points="
  1778.04,1486.45 1778.04,1467.55 
  "/>
<polyline clip-path="url(#clip140)" style="stroke:#adb2b7; stroke-linecap:butt; stroke-linejoin:round; stroke-width:4; stroke-opacity:1; fill:none" points="
  2291.45,1486.45 2291.45,1467.55 
  "/>
<path clip-path="url(#clip140)" d="M237.794 1517.37 Q234.182 1517.37 232.354 1520.93 Q230.548 1524.47 230.548 1531.6 Q230.548 1538.71 232.354 1542.27 Q234.182 1545.82 237.794 1545.82 Q241.428 1545.82 243.233 1542.27 Q245.062 1538.71 245.062 1531.6 Q245.062 1524.47 243.233 1520.93 Q241.428 1517.37 237.794 1517.37 M237.794 1513.66 Q243.604 1513.66 246.659 1518.27 Q249.738 1522.85 249.738 1531.6 Q249.738 1540.33 246.659 1544.94 Q243.604 1549.52 237.794 1549.52 Q231.983 1549.52 228.905 1544.94 Q225.849 1540.33 225.849 1531.6 Q225.849 1522.85 228.905 1518.27 Q231.983 1513.66 237.794 1513.66 Z" fill="#ffffff" fill-rule="evenodd" fill-opacity="1" /><path clip-path="url(#clip140)" d="M725.908 1514.29 L744.264 1514.29 L744.264 1518.22 L730.19 1518.22 L730.19 1526.7 Q731.209 1526.35 732.227 1526.19 Q733.246 1526 734.264 1526 Q740.051 1526 743.431 1529.17 Q746.811 1532.34 746.811 1537.76 Q746.811 1543.34 743.338 1546.44 Q739.866 1549.52 733.547 1549.52 Q731.371 1549.52 729.102 1549.15 Q726.857 1548.78 724.45 1548.04 L724.45 1543.34 Q726.533 1544.47 728.755 1545.03 Q730.977 1545.58 733.454 1545.58 Q737.459 1545.58 739.797 1543.48 Q742.135 1541.37 742.135 1537.76 Q742.135 1534.15 739.797 1532.04 Q737.459 1529.94 733.454 1529.94 Q731.579 1529.94 729.704 1530.35 Q727.852 1530.77 725.908 1531.65 L725.908 1514.29 Z" fill="#ffffff" fill-rule="evenodd" fill-opacity="1" /><path clip-path="url(#clip140)" d="M766.023 1517.37 Q762.412 1517.37 760.584 1520.93 Q758.778 1524.47 758.778 1531.6 Q758.778 1538.71 760.584 1542.27 Q762.412 1545.82 766.023 1545.82 Q769.658 1545.82 771.463 1542.27 Q773.292 1538.71 773.292 1531.6 Q773.292 1524.47 771.463 1520.93 Q769.658 1517.37 766.023 1517.37 M766.023 1513.66 Q771.834 1513.66 774.889 1518.27 Q777.968 1522.85 777.968 1531.6 Q777.968 1540.33 774.889 1544.94 Q771.834 1549.52 766.023 1549.52 Q760.213 1549.52 757.135 1544.94 Q754.079 1540.33 754.079 1531.6 Q754.079 1522.85 757.135 1518.27 Q760.213 1513.66 766.023 1513.66 Z" fill="#ffffff" fill-rule="evenodd" fill-opacity="1" /><path clip-path="url(#clip140)" d="M1224.23 1544.91 L1231.87 1544.91 L1231.87 1518.55 L1223.56 1520.21 L1223.56 1515.95 L1231.82 1514.29 L1236.5 1514.29 L1236.5 1544.91 L1244.14 1544.91 L1244.14 1548.85 L1224.23 1548.85 L1224.23 1544.91 Z" fill="#ffffff" fill-rule="evenodd" fill-opacity="1" /><path clip-path="url(#clip140)" d="M1263.58 1517.37 Q1259.97 1517.37 1258.14 1520.93 Q1256.34 1524.47 1256.34 1531.6 Q1256.34 1538.71 1258.14 1542.27 Q1259.97 1545.82 1263.58 1545.82 Q1267.22 1545.82 1269.02 1542.27 Q1270.85 1538.71 1270.85 1531.6 Q1270.85 1524.47 1269.02 1520.93 Q1267.22 1517.37 1263.58 1517.37 M1263.58 1513.66 Q1269.39 1513.66 1272.45 1518.27 Q1275.53 1522.85 1275.53 1531.6 Q1275.53 1540.33 1272.45 1544.94 Q1269.39 1549.52 1263.58 1549.52 Q1257.77 1549.52 1254.69 1544.94 Q1251.64 1540.33 1251.64 1531.6 Q1251.64 1522.85 1254.69 1518.27 Q1257.77 1513.66 1263.58 1513.66 Z" fill="#ffffff" fill-rule="evenodd" fill-opacity="1" /><path clip-path="url(#clip140)" d="M1293.74 1517.37 Q1290.13 1517.37 1288.3 1520.93 Q1286.5 1524.47 1286.5 1531.6 Q1286.5 1538.71 1288.3 1542.27 Q1290.13 1545.82 1293.74 1545.82 Q1297.38 1545.82 1299.18 1542.27 Q1301.01 1538.71 1301.01 1531.6 Q1301.01 1524.47 1299.18 1520.93 Q1297.38 1517.37 1293.74 1517.37 M1293.74 1513.66 Q1299.55 1513.66 1302.61 1518.27 Q1305.69 1522.85 1305.69 1531.6 Q1305.69 1540.33 1302.61 1544.94 Q1299.55 1549.52 1293.74 1549.52 Q1287.93 1549.52 1284.86 1544.94 Q1281.8 1540.33 1281.8 1531.6 Q1281.8 1522.85 1284.86 1518.27 Q1287.93 1513.66 1293.74 1513.66 Z" fill="#ffffff" fill-rule="evenodd" fill-opacity="1" /><path clip-path="url(#clip140)" d="M1737.65 1544.91 L1745.28 1544.91 L1745.28 1518.55 L1736.97 1520.21 L1736.97 1515.95 L1745.24 1514.29 L1749.91 1514.29 L1749.91 1544.91 L1757.55 1544.91 L1757.55 1548.85 L1737.65 1548.85 L1737.65 1544.91 Z" fill="#ffffff" fill-rule="evenodd" fill-opacity="1" /><path clip-path="url(#clip140)" d="M1767.04 1514.29 L1785.4 1514.29 L1785.4 1518.22 L1771.33 1518.22 L1771.33 1526.7 Q1772.34 1526.35 1773.36 1526.19 Q1774.38 1526 1775.4 1526 Q1781.19 1526 1784.57 1529.17 Q1787.95 1532.34 1787.95 1537.76 Q1787.95 1543.34 1784.47 1546.44 Q1781 1549.52 1774.68 1549.52 Q1772.51 1549.52 1770.24 1549.15 Q1767.99 1548.78 1765.59 1548.04 L1765.59 1543.34 Q1767.67 1544.47 1769.89 1545.03 Q1772.11 1545.58 1774.59 1545.58 Q1778.59 1545.58 1780.93 1543.48 Q1783.27 1541.37 1783.27 1537.76 Q1783.27 1534.15 1780.93 1532.04 Q1778.59 1529.94 1774.59 1529.94 Q1772.71 1529.94 1770.84 1530.35 Q1768.99 1530.77 1767.04 1531.65 L1767.04 1514.29 Z" fill="#ffffff" fill-rule="evenodd" fill-opacity="1" /><path clip-path="url(#clip140)" d="M1807.16 1517.37 Q1803.55 1517.37 1801.72 1520.93 Q1799.91 1524.47 1799.91 1531.6 Q1799.91 1538.71 1801.72 1542.27 Q1803.55 1545.82 1807.16 1545.82 Q1810.79 1545.82 1812.6 1542.27 Q1814.43 1538.71 1814.43 1531.6 Q1814.43 1524.47 1812.6 1520.93 Q1810.79 1517.37 1807.16 1517.37 M1807.16 1513.66 Q1812.97 1513.66 1816.02 1518.27 Q1819.1 1522.85 1819.1 1531.6 Q1819.1 1540.33 1816.02 1544.94 Q1812.97 1549.52 1807.16 1549.52 Q1801.35 1549.52 1798.27 1544.94 Q1795.21 1540.33 1795.21 1531.6 Q1795.21 1522.85 1798.27 1518.27 Q1801.35 1513.66 1807.16 1513.66 Z" fill="#ffffff" fill-rule="evenodd" fill-opacity="1" /><path clip-path="url(#clip140)" d="M2255.15 1544.91 L2271.47 1544.91 L2271.47 1548.85 L2249.52 1548.85 L2249.52 1544.91 Q2252.18 1542.16 2256.77 1537.53 Q2261.37 1532.88 2262.55 1531.53 Q2264.8 1529.01 2265.68 1527.27 Q2266.58 1525.51 2266.58 1523.82 Q2266.58 1521.07 2264.64 1519.33 Q2262.72 1517.6 2259.61 1517.6 Q2257.41 1517.6 2254.96 1518.36 Q2252.53 1519.13 2249.75 1520.68 L2249.75 1515.95 Q2252.58 1514.82 2255.03 1514.24 Q2257.48 1513.66 2259.52 1513.66 Q2264.89 1513.66 2268.09 1516.35 Q2271.28 1519.03 2271.28 1523.52 Q2271.28 1525.65 2270.47 1527.57 Q2269.68 1529.47 2267.58 1532.07 Q2267 1532.74 2263.9 1535.95 Q2260.79 1539.15 2255.15 1544.91 Z" fill="#ffffff" fill-rule="evenodd" fill-opacity="1" /><path clip-path="url(#clip140)" d="M2291.28 1517.37 Q2287.67 1517.37 2285.84 1520.93 Q2284.04 1524.47 2284.04 1531.6 Q2284.04 1538.71 2285.84 1542.27 Q2287.67 1545.82 2291.28 1545.82 Q2294.91 1545.82 2296.72 1542.27 Q2298.55 1538.71 2298.55 1531.6 Q2298.55 1524.47 2296.72 1520.93 Q2294.91 1517.37 2291.28 1517.37 M2291.28 1513.66 Q2297.09 1513.66 2300.15 1518.27 Q2303.22 1522.85 2303.22 1531.6 Q2303.22 1540.33 2300.15 1544.94 Q2297.09 1549.52 2291.28 1549.52 Q2285.47 1549.52 2282.39 1544.94 Q2279.34 1540.33 2279.34 1531.6 Q2279.34 1522.85 2282.39 1518.27 Q2285.47 1513.66 2291.28 1513.66 Z" fill="#ffffff" fill-rule="evenodd" fill-opacity="1" /><path clip-path="url(#clip140)" d="M2321.44 1517.37 Q2317.83 1517.37 2316 1520.93 Q2314.2 1524.47 2314.2 1531.6 Q2314.2 1538.71 2316 1542.27 Q2317.83 1545.82 2321.44 1545.82 Q2325.08 1545.82 2326.88 1542.27 Q2328.71 1538.71 2328.71 1531.6 Q2328.71 1524.47 2326.88 1520.93 Q2325.08 1517.37 2321.44 1517.37 M2321.44 1513.66 Q2327.25 1513.66 2330.31 1518.27 Q2333.39 1522.85 2333.39 1531.6 Q2333.39 1540.33 2330.31 1544.94 Q2327.25 1549.52 2321.44 1549.52 Q2315.63 1549.52 2312.55 1544.94 Q2309.5 1540.33 2309.5 1531.6 Q2309.5 1522.85 2312.55 1518.27 Q2315.63 1513.66 2321.44 1513.66 Z" fill="#ffffff" fill-rule="evenodd" fill-opacity="1" /><polyline clip-path="url(#clip142)" style="stroke:#adb2b7; stroke-linecap:butt; stroke-linejoin:round; stroke-width:2; stroke-opacity:0.1; fill:none" points="
  186.76,1299.4 2352.76,1299.4 
  "/>
<polyline clip-path="url(#clip142)" style="stroke:#adb2b7; stroke-linecap:butt; stroke-linejoin:round; stroke-width:2; stroke-opacity:0.1; fill:none" points="
  186.76,1030.15 2352.76,1030.15 
  "/>
<polyline clip-path="url(#clip142)" style="stroke:#adb2b7; stroke-linecap:butt; stroke-linejoin:round; stroke-width:2; stroke-opacity:0.1; fill:none" points="
  186.76,760.909 2352.76,760.909 
  "/>
<polyline clip-path="url(#clip142)" style="stroke:#adb2b7; stroke-linecap:butt; stroke-linejoin:round; stroke-width:2; stroke-opacity:0.1; fill:none" points="
  186.76,491.663 2352.76,491.663 
  "/>
<polyline clip-path="url(#clip142)" style="stroke:#adb2b7; stroke-linecap:butt; stroke-linejoin:round; stroke-width:2; stroke-opacity:0.1; fill:none" points="
  186.76,222.418 2352.76,222.418 
  "/>
<polyline clip-path="url(#clip140)" style="stroke:#adb2b7; stroke-linecap:butt; stroke-linejoin:round; stroke-width:4; stroke-opacity:1; fill:none" points="
  186.76,1486.45 186.76,47.2441 
  "/>
<polyline clip-path="url(#clip140)" style="stroke:#adb2b7; stroke-linecap:butt; stroke-linejoin:round; stroke-width:4; stroke-opacity:1; fill:none" points="
  186.76,1299.4 205.658,1299.4 
  "/>
<polyline clip-path="url(#clip140)" style="stroke:#adb2b7; stroke-linecap:butt; stroke-linejoin:round; stroke-width:4; stroke-opacity:1; fill:none" points="
  186.76,1030.15 205.658,1030.15 
  "/>
<polyline clip-path="url(#clip140)" style="stroke:#adb2b7; stroke-linecap:butt; stroke-linejoin:round; stroke-width:4; stroke-opacity:1; fill:none" points="
  186.76,760.909 205.658,760.909 
  "/>
<polyline clip-path="url(#clip140)" style="stroke:#adb2b7; stroke-linecap:butt; stroke-linejoin:round; stroke-width:4; stroke-opacity:1; fill:none" points="
  186.76,491.663 205.658,491.663 
  "/>
<polyline clip-path="url(#clip140)" style="stroke:#adb2b7; stroke-linecap:butt; stroke-linejoin:round; stroke-width:4; stroke-opacity:1; fill:none" points="
  186.76,222.418 205.658,222.418 
  "/>
<path clip-path="url(#clip140)" d="M64.6495 1285.2 Q61.0384 1285.2 59.2097 1288.76 Q57.4041 1292.31 57.4041 1299.44 Q57.4041 1306.54 59.2097 1310.11 Q61.0384 1313.65 64.6495 1313.65 Q68.2837 1313.65 70.0892 1310.11 Q71.9179 1306.54 71.9179 1299.44 Q71.9179 1292.31 70.0892 1288.76 Q68.2837 1285.2 64.6495 1285.2 M64.6495 1281.5 Q70.4596 1281.5 73.5152 1286.1 Q76.5938 1290.69 76.5938 1299.44 Q76.5938 1308.16 73.5152 1312.77 Q70.4596 1317.35 64.6495 1317.35 Q58.8393 1317.35 55.7606 1312.77 Q52.7051 1308.16 52.7051 1299.44 Q52.7051 1290.69 55.7606 1286.1 Q58.8393 1281.5 64.6495 1281.5 Z" fill="#ffffff" fill-rule="evenodd" fill-opacity="1" /><path clip-path="url(#clip140)" d="M84.8114 1310.8 L89.6956 1310.8 L89.6956 1316.68 L84.8114 1316.68 L84.8114 1310.8 Z" fill="#ffffff" fill-rule="evenodd" fill-opacity="1" /><path clip-path="url(#clip140)" d="M109.881 1285.2 Q106.27 1285.2 104.441 1288.76 Q102.635 1292.31 102.635 1299.44 Q102.635 1306.54 104.441 1310.11 Q106.27 1313.65 109.881 1313.65 Q113.515 1313.65 115.32 1310.11 Q117.149 1306.54 117.149 1299.44 Q117.149 1292.31 115.32 1288.76 Q113.515 1285.2 109.881 1285.2 M109.881 1281.5 Q115.691 1281.5 118.746 1286.1 Q121.825 1290.69 121.825 1299.44 Q121.825 1308.16 118.746 1312.77 Q115.691 1317.35 109.881 1317.35 Q104.071 1317.35 100.992 1312.77 Q97.9363 1308.16 97.9363 1299.44 Q97.9363 1290.69 100.992 1286.1 Q104.071 1281.5 109.881 1281.5 Z" fill="#ffffff" fill-rule="evenodd" fill-opacity="1" /><path clip-path="url(#clip140)" d="M130.853 1312.75 L138.492 1312.75 L138.492 1286.38 L130.182 1288.05 L130.182 1283.79 L138.445 1282.12 L143.121 1282.12 L143.121 1312.75 L150.76 1312.75 L150.76 1316.68 L130.853 1316.68 L130.853 1312.75 Z" fill="#ffffff" fill-rule="evenodd" fill-opacity="1" /><path clip-path="url(#clip140)" d="M65.0198 1015.95 Q61.4087 1015.95 59.58 1019.52 Q57.7745 1023.06 57.7745 1030.19 Q57.7745 1037.3 59.58 1040.86 Q61.4087 1044.4 65.0198 1044.4 Q68.6541 1044.4 70.4596 1040.86 Q72.2883 1037.3 72.2883 1030.19 Q72.2883 1023.06 70.4596 1019.52 Q68.6541 1015.95 65.0198 1015.95 M65.0198 1012.25 Q70.83 1012.25 73.8855 1016.86 Q76.9642 1021.44 76.9642 1030.19 Q76.9642 1038.92 73.8855 1043.52 Q70.83 1048.11 65.0198 1048.11 Q59.2097 1048.11 56.131 1043.52 Q53.0754 1038.92 53.0754 1030.19 Q53.0754 1021.44 56.131 1016.86 Q59.2097 1012.25 65.0198 1012.25 Z" fill="#ffffff" fill-rule="evenodd" fill-opacity="1" /><path clip-path="url(#clip140)" d="M85.1818 1041.56 L90.066 1041.56 L90.066 1047.43 L85.1818 1047.43 L85.1818 1041.56 Z" fill="#ffffff" fill-rule="evenodd" fill-opacity="1" /><path clip-path="url(#clip140)" d="M110.251 1015.95 Q106.64 1015.95 104.811 1019.52 Q103.006 1023.06 103.006 1030.19 Q103.006 1037.3 104.811 1040.86 Q106.64 1044.4 110.251 1044.4 Q113.885 1044.4 115.691 1040.86 Q117.52 1037.3 117.52 1030.19 Q117.52 1023.06 115.691 1019.52 Q113.885 1015.95 110.251 1015.95 M110.251 1012.25 Q116.061 1012.25 119.117 1016.86 Q122.195 1021.44 122.195 1030.19 Q122.195 1038.92 119.117 1043.52 Q116.061 1048.11 110.251 1048.11 Q104.441 1048.11 101.362 1043.52 Q98.3067 1038.92 98.3067 1030.19 Q98.3067 1021.44 101.362 1016.86 Q104.441 1012.25 110.251 1012.25 Z" fill="#ffffff" fill-rule="evenodd" fill-opacity="1" /><path clip-path="url(#clip140)" d="M134.441 1043.5 L150.76 1043.5 L150.76 1047.43 L128.816 1047.43 L128.816 1043.5 Q131.478 1040.75 136.061 1036.12 Q140.668 1031.46 141.848 1030.12 Q144.093 1027.6 144.973 1025.86 Q145.876 1024.1 145.876 1022.41 Q145.876 1019.66 143.931 1017.92 Q142.01 1016.18 138.908 1016.18 Q136.709 1016.18 134.256 1016.95 Q131.825 1017.71 129.047 1019.26 L129.047 1014.54 Q131.871 1013.41 134.325 1012.83 Q136.779 1012.25 138.816 1012.25 Q144.186 1012.25 147.38 1014.93 Q150.575 1017.62 150.575 1022.11 Q150.575 1024.24 149.765 1026.16 Q148.978 1028.06 146.871 1030.65 Q146.293 1031.32 143.191 1034.54 Q140.089 1037.74 134.441 1043.5 Z" fill="#ffffff" fill-rule="evenodd" fill-opacity="1" /><path clip-path="url(#clip140)" d="M64.0708 746.708 Q60.4597 746.708 58.631 750.273 Q56.8254 753.814 56.8254 760.944 Q56.8254 768.05 58.631 771.615 Q60.4597 775.157 64.0708 775.157 Q67.705 775.157 69.5105 771.615 Q71.3392 768.05 71.3392 760.944 Q71.3392 753.814 69.5105 750.273 Q67.705 746.708 64.0708 746.708 M64.0708 743.004 Q69.8809 743.004 72.9365 747.611 Q76.0151 752.194 76.0151 760.944 Q76.0151 769.671 72.9365 774.277 Q69.8809 778.86 64.0708 778.86 Q58.2606 778.86 55.1819 774.277 Q52.1264 769.671 52.1264 760.944 Q52.1264 752.194 55.1819 747.611 Q58.2606 743.004 64.0708 743.004 Z" fill="#ffffff" fill-rule="evenodd" fill-opacity="1" /><path clip-path="url(#clip140)" d="M84.2327 772.309 L89.1169 772.309 L89.1169 778.189 L84.2327 778.189 L84.2327 772.309 Z" fill="#ffffff" fill-rule="evenodd" fill-opacity="1" /><path clip-path="url(#clip140)" d="M109.302 746.708 Q105.691 746.708 103.862 750.273 Q102.057 753.814 102.057 760.944 Q102.057 768.05 103.862 771.615 Q105.691 775.157 109.302 775.157 Q112.936 775.157 114.742 771.615 Q116.57 768.05 116.57 760.944 Q116.57 753.814 114.742 750.273 Q112.936 746.708 109.302 746.708 M109.302 743.004 Q115.112 743.004 118.168 747.611 Q121.246 752.194 121.246 760.944 Q121.246 769.671 118.168 774.277 Q115.112 778.86 109.302 778.86 Q103.492 778.86 100.413 774.277 Q97.3576 769.671 97.3576 760.944 Q97.3576 752.194 100.413 747.611 Q103.492 743.004 109.302 743.004 Z" fill="#ffffff" fill-rule="evenodd" fill-opacity="1" /><path clip-path="url(#clip140)" d="M143.631 759.555 Q146.987 760.272 148.862 762.541 Q150.76 764.81 150.76 768.143 Q150.76 773.259 147.242 776.059 Q143.723 778.86 137.242 778.86 Q135.066 778.86 132.751 778.421 Q130.459 778.004 128.006 777.147 L128.006 772.634 Q129.95 773.768 132.265 774.346 Q134.58 774.925 137.103 774.925 Q141.501 774.925 143.793 773.189 Q146.107 771.453 146.107 768.143 Q146.107 765.087 143.955 763.374 Q141.825 761.638 138.006 761.638 L133.978 761.638 L133.978 757.796 L138.191 757.796 Q141.64 757.796 143.468 756.43 Q145.297 755.041 145.297 752.448 Q145.297 749.786 143.399 748.374 Q141.524 746.939 138.006 746.939 Q136.084 746.939 133.885 747.356 Q131.686 747.773 129.047 748.652 L129.047 744.486 Q131.709 743.745 134.024 743.374 Q136.362 743.004 138.422 743.004 Q143.746 743.004 146.848 745.435 Q149.95 747.842 149.95 751.962 Q149.95 754.833 148.306 756.823 Q146.663 758.791 143.631 759.555 Z" fill="#ffffff" fill-rule="evenodd" fill-opacity="1" /><path clip-path="url(#clip140)" d="M62.9365 477.462 Q59.3254 477.462 57.4967 481.027 Q55.6912 484.568 55.6912 491.698 Q55.6912 498.804 57.4967 502.369 Q59.3254 505.911 62.9365 505.911 Q66.5707 505.911 68.3763 502.369 Q70.205 498.804 70.205 491.698 Q70.205 484.568 68.3763 481.027 Q66.5707 477.462 62.9365 477.462 M62.9365 473.758 Q68.7467 473.758 71.8022 478.365 Q74.8809 482.948 74.8809 491.698 Q74.8809 500.425 71.8022 505.031 Q68.7467 509.615 62.9365 509.615 Q57.1264 509.615 54.0477 505.031 Q50.9921 500.425 50.9921 491.698 Q50.9921 482.948 54.0477 478.365 Q57.1264 473.758 62.9365 473.758 Z" fill="#ffffff" fill-rule="evenodd" fill-opacity="1" /><path clip-path="url(#clip140)" d="M83.0984 503.064 L87.9827 503.064 L87.9827 508.943 L83.0984 508.943 L83.0984 503.064 Z" fill="#ffffff" fill-rule="evenodd" fill-opacity="1" /><path clip-path="url(#clip140)" d="M108.168 477.462 Q104.557 477.462 102.728 481.027 Q100.922 484.568 100.922 491.698 Q100.922 498.804 102.728 502.369 Q104.557 505.911 108.168 505.911 Q111.802 505.911 113.608 502.369 Q115.436 498.804 115.436 491.698 Q115.436 484.568 113.608 481.027 Q111.802 477.462 108.168 477.462 M108.168 473.758 Q113.978 473.758 117.033 478.365 Q120.112 482.948 120.112 491.698 Q120.112 500.425 117.033 505.031 Q113.978 509.615 108.168 509.615 Q102.358 509.615 99.2789 505.031 Q96.2234 500.425 96.2234 491.698 Q96.2234 482.948 99.2789 478.365 Q102.358 473.758 108.168 473.758 Z" fill="#ffffff" fill-rule="evenodd" fill-opacity="1" /><path clip-path="url(#clip140)" d="M141.177 478.457 L129.371 496.906 L141.177 496.906 L141.177 478.457 M139.95 474.383 L145.83 474.383 L145.83 496.906 L150.76 496.906 L150.76 500.795 L145.83 500.795 L145.83 508.943 L141.177 508.943 L141.177 500.795 L125.575 500.795 L125.575 496.281 L139.95 474.383 Z" fill="#ffffff" fill-rule="evenodd" fill-opacity="1" /><path clip-path="url(#clip140)" d="M64.418 208.216 Q60.8069 208.216 58.9782 211.781 Q57.1726 215.323 57.1726 222.452 Q57.1726 229.559 58.9782 233.124 Q60.8069 236.665 64.418 236.665 Q68.0522 236.665 69.8578 233.124 Q71.6865 229.559 71.6865 222.452 Q71.6865 215.323 69.8578 211.781 Q68.0522 208.216 64.418 208.216 M64.418 204.513 Q70.2281 204.513 73.2837 209.119 Q76.3624 213.702 76.3624 222.452 Q76.3624 231.179 73.2837 235.786 Q70.2281 240.369 64.418 240.369 Q58.6078 240.369 55.5291 235.786 Q52.4736 231.179 52.4736 222.452 Q52.4736 213.702 55.5291 209.119 Q58.6078 204.513 64.418 204.513 Z" fill="#ffffff" fill-rule="evenodd" fill-opacity="1" /><path clip-path="url(#clip140)" d="M84.5799 233.818 L89.4641 233.818 L89.4641 239.698 L84.5799 239.698 L84.5799 233.818 Z" fill="#ffffff" fill-rule="evenodd" fill-opacity="1" /><path clip-path="url(#clip140)" d="M109.649 208.216 Q106.038 208.216 104.209 211.781 Q102.404 215.323 102.404 222.452 Q102.404 229.559 104.209 233.124 Q106.038 236.665 109.649 236.665 Q113.283 236.665 115.089 233.124 Q116.918 229.559 116.918 222.452 Q116.918 215.323 115.089 211.781 Q113.283 208.216 109.649 208.216 M109.649 204.513 Q115.459 204.513 118.515 209.119 Q121.594 213.702 121.594 222.452 Q121.594 231.179 118.515 235.786 Q115.459 240.369 109.649 240.369 Q103.839 240.369 100.76 235.786 Q97.7048 231.179 97.7048 222.452 Q97.7048 213.702 100.76 209.119 Q103.839 204.513 109.649 204.513 Z" fill="#ffffff" fill-rule="evenodd" fill-opacity="1" /><path clip-path="url(#clip140)" d="M129.857 205.138 L148.214 205.138 L148.214 209.073 L134.14 209.073 L134.14 217.545 Q135.158 217.198 136.177 217.036 Q137.195 216.85 138.214 216.85 Q144.001 216.85 147.38 220.022 Q150.76 223.193 150.76 228.61 Q150.76 234.188 147.288 237.29 Q143.816 240.369 137.496 240.369 Q135.32 240.369 133.052 239.999 Q130.807 239.628 128.399 238.887 L128.399 234.188 Q130.482 235.323 132.705 235.878 Q134.927 236.434 137.404 236.434 Q141.408 236.434 143.746 234.327 Q146.084 232.221 146.084 228.61 Q146.084 224.999 143.746 222.892 Q141.408 220.786 137.404 220.786 Q135.529 220.786 133.654 221.202 Q131.802 221.619 129.857 222.499 L129.857 205.138 Z" fill="#ffffff" fill-rule="evenodd" fill-opacity="1" /><polyline clip-path="url(#clip142)" style="stroke:#fe4365; stroke-linecap:butt; stroke-linejoin:round; stroke-width:4; stroke-opacity:1; fill:none" points="
  248.062,87.9763 258.33,177.539 268.598,411.232 278.867,567.717 289.135,664.447 299.403,657.547 309.672,870.308 319.94,868.412 330.208,866.825 340.477,801.773 
  350.745,783.059 361.013,798.591 371.282,1020.45 381.55,1040.34 391.818,727.386 402.086,933.936 412.355,983.064 422.623,1083.05 432.891,928.508 443.16,697.952 
  453.428,969.27 463.696,1213.75 473.965,1208.16 484.233,938.447 494.501,1055.68 504.769,1011.12 515.038,1169.66 525.306,733.756 535.574,994.504 545.843,1244.29 
  556.111,1050.31 566.379,950.631 576.648,1003.35 586.916,975.336 597.184,833.836 607.452,849.247 617.721,1218.98 627.989,898.048 638.257,1245.64 648.526,1119.12 
  658.794,1124.84 669.062,1269.12 679.331,1091.27 689.599,971.914 699.867,1024.71 710.136,949.342 720.404,957.975 730.672,1232.33 740.94,1205.48 751.209,1135.26 
  761.477,970.972 771.745,1018.6 782.014,1224.54 792.282,1033.28 802.55,889.474 812.819,1096.55 823.087,1113.36 833.355,1105.59 843.623,1244.29 853.892,965.687 
  864.16,1231.16 874.428,887.644 884.697,1125.57 894.965,1120.79 905.233,1100.75 915.502,1121.23 925.77,1197.28 936.038,1289.1 946.306,838.717 956.575,1218.2 
  966.843,1002.77 977.111,853.699 987.38,1130.22 997.648,1156.73 1007.92,1179.38 1018.18,873.303 1028.45,1139.08 1038.72,1009.25 1048.99,1108.18 1059.26,1168.81 
  1069.53,943.03 1079.79,947.553 1090.06,1079.23 1100.33,1158.94 1110.6,1168.39 1120.87,1019.19 1131.14,1040.79 1141.4,1106.91 1151.67,1083.43 1161.94,1191.84 
  1172.21,1113.75 1182.48,1166.93 1192.75,1271.46 1203.01,1335.52 1213.28,1073.11 1223.55,1020.58 1233.82,1134.56 1244.09,999.62 1254.36,1155.18 1264.62,1344.63 
  1274.89,915.796 1285.16,1205.42 1295.43,983.246 1305.7,995.001 1315.97,930.81 1326.23,995.052 1336.5,1127.98 1346.77,1275.39 1357.04,1099.17 1367.31,824.814 
  1377.58,1140.01 1387.84,1009.62 1398.11,1220.56 1408.38,1162.31 1418.65,1167.1 1428.92,957.48 1439.19,1355.16 1449.45,1351.29 1459.72,1056.48 1469.99,1128 
  1480.26,1225.69 1490.53,1299.77 1500.79,1445.72 1511.06,1019.57 1521.33,1073.32 1531.6,1126.7 1541.87,1116.54 1552.14,1087.96 1562.4,941.192 1572.67,1058.08 
  1582.94,1267.4 1593.21,1227.55 1603.48,1070.9 1613.75,1233.63 1624.01,1257.86 1634.28,1096.09 1644.55,1174.93 1654.82,1040.49 1665.09,1358.17 1675.36,1331.78 
  1685.62,1165 1695.89,1149.5 1706.16,1309.66 1716.43,1337.31 1726.7,1242.19 1736.97,1010.92 1747.23,1117.86 1757.5,1265.73 1767.77,1290.02 1778.04,936.048 
  1788.31,1103.07 1798.58,1207.49 1808.84,1118.09 1819.11,1123.96 1829.38,1426.04 1839.65,1116.34 1849.92,1270.48 1860.19,1173.05 1870.45,1195.12 1880.72,881.103 
  1890.99,1127.56 1901.26,1228.42 1911.53,1288.25 1921.8,1303.92 1932.06,1429.98 1942.33,832.407 1952.6,1173.39 1962.87,1111.36 1973.14,1178.63 1983.41,1179.19 
  1993.67,1088.08 2003.94,1321.62 2014.21,1387.76 2024.48,1107.04 2034.75,1151.57 2045.01,1262.74 2055.28,1010.85 2065.55,1116.09 2075.82,1245.88 2086.09,1289.14 
  2096.36,965.546 2106.62,1021.25 2116.89,1103.05 2127.16,1178.64 2137.43,1242.35 2147.7,1092.1 2157.97,1209.95 2168.23,1290.48 2178.5,1180.34 2188.77,1309.34 
  2199.04,1081.24 2209.31,1143.68 2219.58,1174.57 2229.84,1129.46 2240.11,1211.74 2250.38,1169.47 2260.65,1157.27 2270.92,1191.86 2281.19,1272 2291.45,1241.05 
  
  "/>
<path clip-path="url(#clip140)" d="
M1988.13 198.898 L2280.56 198.898 L2280.56 95.2176 L1988.13 95.2176  Z
  " fill="#363d46" fill-rule="evenodd" fill-opacity="1"/>
<polyline clip-path="url(#clip140)" style="stroke:#ffffff; stroke-linecap:butt; stroke-linejoin:round; stroke-width:4; stroke-opacity:1; fill:none" points="
  1988.13,198.898 2280.56,198.898 2280.56,95.2176 1988.13,95.2176 1988.13,198.898 
  "/>
<polyline clip-path="url(#clip140)" style="stroke:#fe4365; stroke-linecap:butt; stroke-linejoin:round; stroke-width:4; stroke-opacity:1; fill:none" points="
  2012.13,147.058 2156.13,147.058 
  "/>
<path clip-path="url(#clip140)" d="M2193.97 166.745 Q2192.16 171.375 2190.45 172.787 Q2188.74 174.199 2185.87 174.199 L2182.46 174.199 L2182.46 170.634 L2184.96 170.634 Q2186.72 170.634 2187.7 169.8 Q2188.67 168.967 2189.85 165.865 L2190.61 163.921 L2180.13 138.412 L2184.64 138.412 L2192.74 158.689 L2200.84 138.412 L2205.36 138.412 L2193.97 166.745 Z" fill="#ffffff" fill-rule="evenodd" fill-opacity="1" /><path clip-path="url(#clip140)" d="M2212.65 160.402 L2220.29 160.402 L2220.29 134.037 L2211.98 135.703 L2211.98 131.444 L2220.24 129.778 L2224.92 129.778 L2224.92 160.402 L2232.56 160.402 L2232.56 164.338 L2212.65 164.338 L2212.65 160.402 Z" fill="#ffffff" fill-rule="evenodd" fill-opacity="1" /></svg>
